<?xml version="1.0" standalone="no"?>
<!DOCTYPE svg PUBLIC "-//W3C//DTD SVG 20010904//EN"
 "http://www.w3.org/TR/2001/REC-SVG-20010904/DTD/svg10.dtd">
<svg version="1.0" xmlns="http://www.w3.org/2000/svg"
 width="590.000000pt" height="590.000000pt" viewBox="0 0 590.000000 590.000000"
 preserveAspectRatio="xMidYMid meet">
<metadata>
Created by potrace 1.14, written by Peter Selinger 2001-2017
</metadata>
<g transform="translate(0.000000,590.000000) scale(0.100000,-0.100000)"
fill="#000000" stroke="none">
<path d="M0 5446 c0 -410 2 -454 16 -460 13 -5 15 -15 10 -48 -4 -23 -11 -47
-15 -53 -4 -5 -9 -34 -10 -63 l-2 -54 56 46 c31 25 61 46 66 46 6 0 51 -35
102 -78 120 -101 127 -106 127 -95 0 10 -94 91 -200 174 -25 20 -59 54 -75 75
l-28 39 35 -33 c28 -27 40 -32 62 -26 57 14 175 -42 146 -69 -10 -10 -11 -9
-5 2 5 9 4 12 -3 7 -7 -4 -12 -1 -12 8 0 18 -25 22 -35 6 -4 -6 1 -7 12 -3 10
3 15 3 11 -2 -4 -4 17 -25 47 -47 30 -21 55 -43 55 -48 0 -10 -155 93 -183
122 -10 10 -22 16 -27 13 -8 -5 40 -61 50 -58 9 2 114 -82 113 -92 0 -5 10
-20 24 -33 20 -18 28 -20 44 -11 20 10 20 11 2 24 -12 9 -13 14 -5 15 7 0 29
-12 47 -26 32 -24 36 -25 51 -9 12 11 20 13 27 6 6 -6 16 -11 21 -11 6 1 0 10
-13 20 -27 23 -16 27 13 5 15 -11 17 -18 8 -27 -8 -8 -15 -8 -26 1 -8 7 -17 8
-20 3 -3 -6 2 -13 11 -16 15 -6 15 -8 2 -22 -9 -9 -23 -12 -33 -8 -10 4 -13 9
-8 13 6 3 0 11 -14 18 -14 6 -24 7 -24 1 0 -5 -5 -6 -11 -3 -6 4 -13 -2 -16
-14 -3 -12 -12 -21 -19 -21 -8 0 -14 -5 -14 -11 0 -5 -15 4 -32 20 -18 17 -39
31 -45 31 -7 0 -13 5 -13 11 0 8 -6 7 -17 -2 -9 -8 -14 -9 -10 -3 6 10 -12 24
-29 24 -11 0 -2 -36 14 -53 12 -15 13 -18 2 -12 -13 8 -13 6 -1 -8 7 -9 17
-14 22 -11 5 3 8 0 7 -8 -2 -9 5 -12 22 -10 21 4 22 2 11 -12 -11 -14 -11 -16
3 -16 9 0 16 -5 16 -11 0 -5 -5 -7 -12 -3 -7 4 -8 3 -4 -4 4 -7 1 -12 -8 -12
-8 0 -17 4 -20 9 -3 5 -23 11 -45 13 -38 3 -61 -12 -61 -41 0 -17 44 -8 70 13
l25 21 -24 -27 c-26 -30 -23 -35 11 -17 15 8 19 8 14 0 -4 -6 -3 -11 3 -11 5
0 13 5 16 10 4 6 10 8 15 5 5 -3 11 3 15 14 3 11 12 25 21 32 12 10 13 9 8 -5
-6 -16 2 -20 36 -17 11 0 11 -1 2 -5 -17 -8 3 -34 25 -34 12 0 13 3 4 14 -9
11 -9 16 0 22 8 4 9 3 5 -4 -4 -7 -1 -12 6 -12 7 0 18 -10 23 -23 10 -21 9
-22 -28 -20 l-38 2 25 -20 c14 -11 26 -26 26 -32 0 -8 -3 -9 -8 -1 -4 6 -16
14 -27 18 -15 5 -17 4 -9 -4 14 -14 7 -47 -12 -54 -8 -3 -14 -1 -14 3 0 5 6
11 12 14 7 2 10 8 6 12 -4 4 -16 2 -25 -6 -17 -13 -17 -13 -1 6 14 17 14 22 2
33 -8 7 -11 18 -8 24 4 6 3 8 -4 4 -6 -3 -13 -2 -17 4 -9 14 -105 13 -105 -1
0 -8 14 -10 40 -6 22 3 38 1 35 -3 -11 -18 8 -41 29 -35 11 2 15 2 9 -1 -17
-8 -16 -19 4 -39 16 -16 15 -18 -8 -36 -20 -15 -25 -16 -27 -3 -3 14 -45 15
-92 2 -8 -3 -12 -3 -8 -1 15 9 8 23 -12 23 -11 0 -20 5 -20 10 0 6 7 10 16 10
11 0 14 5 10 16 -5 13 -3 14 6 6 9 -7 18 -7 31 3 16 11 16 13 1 19 -9 3 -29 0
-45 -8 -16 -8 -27 -10 -23 -5 7 12 -28 8 -37 -4 -3 -5 -15 -10 -25 -12 -32 -6
-30 -8 16 -15 l45 -7 -42 -1 c-31 -2 -43 -6 -43 -17 0 -8 -7 -15 -15 -15 -8 0
-15 5 -15 10 0 17 -28 11 -33 -7 -2 -10 -4 -67 -3 -128 1 -109 1 -110 26 -113
20 -3 23 -1 12 9 -6 7 -12 18 -12 23 0 6 7 0 16 -13 13 -18 18 -20 26 -10 8
11 9 11 5 -1 -2 -8 -9 -16 -15 -16 -7 -1 -24 -3 -39 -4 -24 -2 -25 -3 -8 -8
11 -4 21 -17 22 -30 2 -13 -1 -21 -7 -17 -6 3 -10 -1 -10 -11 0 -14 2 -14 16
-3 9 7 21 14 28 15 6 1 24 5 39 7 20 4 34 0 48 -14 10 -10 19 -14 19 -8 0 6 6
9 13 6 6 -2 23 1 37 7 14 7 48 11 76 11 47 0 50 1 46 23 -2 12 -14 29 -26 38
-21 14 -21 15 4 10 14 -2 24 -9 22 -16 -1 -7 2 -8 9 -4 8 5 10 2 7 -8 -4 -8
-2 -21 2 -29 7 -10 9 -7 8 11 -1 14 -6 31 -11 38 -6 8 -5 12 4 12 9 1 8 5 -5
15 -11 8 -16 15 -10 15 5 0 2 5 -6 10 -13 9 -13 11 0 20 35 23 45 8 47 -70 3
-78 -13 -196 -28 -205 -18 -12 -298 -8 -312 4 -8 6 -22 9 -31 5 -12 -5 -16
-20 -16 -70 0 -63 0 -64 28 -65 l27 -1 -29 -11 c-26 -11 -28 -14 -21 -52 8
-48 8 -72 0 -102 -4 -18 -1 -23 14 -23 14 0 19 5 15 15 -5 11 -2 13 10 9 9 -3
13 -11 10 -16 -4 -6 -1 -8 7 -6 8 3 13 10 12 15 -3 13 75 7 92 -7 13 -11 14
-10 9 4 -5 12 -2 15 12 9 12 -4 15 -3 9 6 -6 11 -3 11 16 1 l23 -13 -23 -8
c-12 -5 -20 -13 -16 -18 3 -6 -4 -8 -15 -6 -11 2 -20 0 -20 -6 0 -5 -7 -9 -16
-9 -8 0 -12 -4 -9 -10 3 -6 -1 -7 -9 -4 -9 3 -16 10 -16 15 0 5 -5 9 -11 9 -5
0 -8 -4 -4 -9 3 -5 0 -13 -6 -17 -8 -4 -9 -3 -5 4 4 7 2 12 -5 12 -10 0 -10 3
-1 12 7 7 12 16 12 22 0 6 -5 5 -12 -2 -7 -7 -22 -12 -35 -12 -24 0 -31 -14
-11 -26 7 -4 8 -3 4 4 -4 7 -1 12 9 12 23 0 30 -29 11 -48 -14 -14 -17 -14
-14 -2 2 9 -4 14 -14 14 -10 -1 -16 2 -13 6 3 5 1 11 -5 15 -7 4 -10 -106 -10
-334 0 -188 3 -341 6 -341 3 0 14 5 24 10 11 6 21 6 24 1 4 -5 -7 -12 -24 -16
-16 -4 -30 -11 -30 -17 0 -6 10 -8 25 -4 19 5 23 3 19 -8 -3 -8 -14 -13 -25
-11 -16 3 -19 -2 -19 -40 l0 -44 95 -3 c52 -2 95 0 95 5 0 10 37 9 44 -1 4 -7
-10 -11 -51 -14 -17 -2 -17 -25 0 -31 9 -4 9 -6 -1 -6 -8 -1 -16 8 -19 18 -4
16 -10 18 -35 11 -16 -5 -39 -5 -52 -1 -12 5 -34 7 -49 4 l-27 -5 0 -155 0
-155 28 6 c203 40 420 67 542 66 98 -1 149 3 184 14 55 18 180 22 137 5 -14
-5 -31 -7 -38 -5 -7 3 -13 0 -13 -5 0 -7 -11 -9 -25 -7 -13 3 -22 2 -20 -2 6
-10 -224 -92 -237 -84 -7 4 -8 3 -4 -4 6 -11 -6 -16 -26 -13 -5 0 -8 -3 -8 -8
0 -5 -18 -9 -41 -9 -47 -1 -68 -12 -23 -12 l29 -1 -30 -14 c-41 -18 -27 -18
25 0 49 17 74 19 65 5 -4 -6 15 -10 50 -10 38 0 57 4 61 14 3 8 26 17 52 21
26 4 52 10 57 13 6 4 15 8 20 9 40 10 251 69 285 79 8 3 16 5 17 5 2 0 17 5
35 10 18 6 40 12 48 14 62 14 67 12 20 -6 -234 -92 -290 -115 -330 -134 -44
-22 -74 -26 -300 -41 -41 -3 -97 -7 -125 -10 -27 -2 -62 -6 -77 -7 -15 -2 -35
-10 -45 -19 -37 -34 -118 -51 -218 -46 l-95 4 0 -98 c0 -72 3 -98 13 -98 8 0
9 -3 1 -8 -11 -7 -20 -132 -9 -132 3 0 93 12 198 26 183 25 300 28 408 10 35
-5 565 -22 604 -18 165 13 182 13 215 0 24 -10 80 -16 175 -17 76 -1 142 -4
146 -7 4 -2 15 19 24 47 15 43 15 53 4 61 -11 8 -10 9 3 5 14 -5 28 10 28 29
0 3 -20 4 -45 1 -25 -2 -45 -1 -45 3 0 4 -6 7 -12 7 -7 0 -101 8 -208 16 -107
9 -271 21 -365 27 -272 17 -280 18 -90 14 99 -3 248 -11 330 -18 148 -14 191
-14 121 -1 -20 4 -34 11 -31 15 2 4 -8 7 -23 7 -64 0 -148 7 -157 13 -5 4 -59
7 -118 6 -60 -1 -111 2 -114 6 -2 5 -9 8 -14 8 -6 0 -8 -4 -5 -8 2 -4 -5 -9
-17 -9 -15 -2 -18 0 -8 6 11 7 11 9 0 14 -8 3 -3 6 11 7 24 2 23 3 -5 10 -59
15 102 10 548 -16 116 -6 121 -5 159 49 l21 29 -21 -11 c-13 -7 -22 -8 -22 -2
0 5 6 11 12 14 7 2 10 7 7 11 -3 3 -15 -3 -27 -14 -12 -12 -22 -16 -22 -10 0
6 -32 11 -77 12 l-78 2 70 7 c47 4 17 6 -90 4 -99 -2 -150 1 -135 6 21 7 20 8
-9 4 -18 -3 -67 -5 -108 -5 -60 0 -74 -3 -70 -14 3 -8 0 -21 -6 -29 -10 -13
-33 -14 -134 -10 -68 3 -123 9 -123 14 0 4 4 18 9 31 7 20 23 27 87 42 141 33
258 74 272 96 14 23 13 24 -25 8 -29 -12 -38 -15 -63 -17 -13 -1 -13 -2 0 -11
13 -8 13 -10 -2 -10 -9 0 -18 5 -20 10 -2 7 -43 7 -127 0 -68 -6 -125 -9 -127
-7 -10 10 478 187 517 187 7 0 9 -10 7 -25 -6 -31 13 -33 91 -9 38 11 57 12
64 5 8 -8 5 -11 -11 -11 -13 0 -36 -7 -52 -15 -17 -9 -33 -15 -37 -15 -17 2
-93 -23 -93 -30 0 -4 -6 -8 -12 -7 -7 0 -24 -1 -38 -2 -20 -1 -22 -3 -10 -11
12 -7 10 -11 -9 -18 -53 -19 50 -40 137 -27 52 8 49 15 -9 21 -24 3 -45 7 -47
8 -8 8 197 80 229 80 34 1 39 -2 39 -21 0 -13 -6 -23 -12 -23 -10 0 -9 -3 1
-9 11 -7 11 -9 0 -14 -10 -4 -9 -6 4 -6 9 -1 17 -8 17 -16 0 -25 86 -20 100 5
6 11 15 20 20 20 16 0 7 -24 -12 -32 -10 -4 -19 -24 -23 -52 -8 -49 -4 -48
-95 -30 -16 4 -21 2 -15 -4 13 -13 115 -23 115 -12 0 9 105 60 124 60 6 0 22
-9 35 -19 l24 -18 -25 -6 c-14 -4 -28 -16 -31 -27 -3 -11 -13 -23 -24 -26 -60
-19 -115 -52 -167 -100 -58 -54 -102 -72 -89 -36 3 9 3 14 -2 10 -4 -4 -16 -3
-26 2 -14 8 -21 5 -33 -12 -18 -25 -6 -39 27 -32 11 2 27 0 36 -5 9 -5 55 -11
103 -14 70 -5 87 -3 92 8 3 8 1 16 -4 16 -6 1 -16 2 -22 3 -7 1 -21 -2 -32 -7
-13 -6 -16 -6 -12 2 4 6 1 11 -6 12 -7 0 -2 4 10 10 13 5 29 6 34 2 7 -3 8 -1
4 6 -5 7 3 13 23 17 17 4 31 10 31 15 0 5 9 13 21 19 20 11 20 10 6 -17 -8
-15 -18 -44 -21 -63 -14 -80 -26 -114 -64 -178 -22 -37 -55 -101 -72 -142 -44
-104 -53 -121 -57 -116 -3 2 0 14 7 25 9 19 8 21 -13 21 -12 0 -27 4 -33 9 -5
5 -90 11 -190 15 -100 3 -187 8 -195 10 -13 5 -192 14 -292 15 -34 1 -46 4
-41 13 5 8 -3 9 -29 5 -22 -3 -37 -2 -37 4 0 7 -29 9 -75 7 -41 -2 -76 0 -78
5 -1 4 -142 9 -312 12 -171 3 -325 8 -342 10 l-33 4 0 -248 0 -249 23 -6 c12
-3 215 -6 451 -6 236 0 427 -2 424 -5 -2 -3 -198 -6 -434 -6 -236 -1 -433 -4
-438 -7 -5 -3 -1 -9 10 -13 17 -6 16 -8 -8 -14 l-28 -7 0 -649 0 -649 700 0
c660 0 700 1 700 18 0 114 37 371 70 491 11 40 18 76 15 81 -3 4 -1 10 3 12 5
1 39 103 77 225 38 122 70 221 72 220 1 -2 -6 -50 -16 -107 -17 -93 -26 -190
-22 -242 1 -22 31 -24 31 -3 0 8 5 15 10 15 6 0 10 4 10 10 0 14 108 210 125
227 8 8 15 23 15 34 0 10 4 19 10 19 5 0 13 12 16 27 9 35 62 140 74 148 16
10 12 -44 -11 -155 -20 -98 -23 -209 -6 -226 12 -12 33 14 57 73 13 32 33 74
45 93 12 19 28 67 35 105 7 41 40 132 78 218 l64 147 98 89 c54 49 97 91 95
93 -2 2 -7 19 -10 38 -4 19 -8 44 -11 55 -2 11 -12 54 -24 95 -11 41 -22 86
-25 99 -2 13 -8 27 -13 30 -5 3 -13 49 -16 101 -7 98 -21 150 -39 150 -6 0 -7
3 -4 7 4 3 2 12 -4 20 -18 21 5 16 61 -12 82 -42 232 -95 435 -154 105 -31
299 -61 391 -61 101 0 225 16 329 42 133 33 379 141 573 251 l62 36 0 -72 c0
-40 -4 -88 -10 -107 -5 -19 -12 -64 -15 -100 -3 -36 -7 -84 -9 -108 -3 -35 0
-42 12 -40 10 2 19 23 27 59 12 60 27 88 87 160 21 25 38 56 38 68 0 34 65
177 101 225 31 40 34 41 90 41 68 1 88 13 62 38 -25 22 -113 58 -113 46 0 -6
-4 -7 -10 -4 -6 3 -7 -1 -4 -9 6 -15 -5 -20 -43 -19 -6 0 -9 -5 -7 -12 3 -6
-2 -18 -11 -25 -8 -7 -15 -9 -15 -6 0 4 -9 2 -20 -4 -15 -8 -20 -8 -20 1 0 6
9 13 20 16 11 3 17 9 14 14 -3 5 2 6 11 3 9 -4 15 -2 13 4 -4 15 72 102 89
102 7 0 13 5 13 10 0 6 6 10 13 10 7 0 18 15 26 33 8 20 15 27 18 18 4 -9 10
-2 19 19 9 21 19 30 28 27 8 -3 22 1 33 9 10 9 12 13 6 9 -7 -3 -13 -1 -13 5
0 6 9 14 19 18 11 4 20 12 20 17 1 6 17 11 38 12 l37 2 -39 -34 c-48 -41 -39
-43 54 -10 l70 26 153 -37 c101 -24 146 -39 134 -44 -15 -5 -247 -10 -460 -10
-6 0 -5 -5 1 -11 7 -7 56 -11 137 -10 99 2 126 -1 126 -11 0 -19 47 -21 54 -3
3 8 0 15 -6 15 -6 0 -9 2 -7 4 6 7 46 -4 279 -73 113 -34 212 -60 220 -59 8 1
21 -1 28 -5 17 -11 32 1 25 20 -4 11 -3 14 5 9 8 -5 10 -2 6 8 -3 9 -9 15 -12
15 -17 -2 -51 14 -46 22 3 5 21 2 40 -6 46 -19 33 0 -16 24 -27 13 -41 15 -44
7 -2 -6 -5 -3 -5 7 -1 13 -6 17 -20 12 -10 -3 -29 -1 -42 5 -19 7 -8 9 51 9
41 -1 86 2 101 6 20 5 27 2 36 -17 8 -19 26 -28 74 -41 64 -17 98 -21 132 -19
14 2 18 9 15 34 -2 25 1 33 15 36 10 2 16 -2 15 -8 -2 -9 165 -59 230 -70 1 0
2 9 2 19 0 16 -9 21 -47 26 -59 8 -75 13 -45 14 12 1 22 6 22 11 0 6 16 10 35
10 28 0 35 4 35 20 0 18 -4 20 -40 14 -32 -5 -40 -4 -40 9 0 9 8 18 18 20 13
4 13 5 -4 6 -16 1 -23 10 -28 32 -9 49 -9 49 44 49 38 0 50 4 50 15 0 16 -10
17 -112 19 -31 1 -60 5 -65 10 -4 4 34 6 85 5 l92 -4 0 36 0 35 -72 -2 c-52
-2 -64 0 -43 6 17 4 49 8 73 9 l42 1 0 39 c0 29 -5 41 -17 44 -17 4 -17 5 0 6
14 1 17 11 17 51 0 49 -1 51 -47 80 -26 17 -40 30 -32 31 7 0 1 5 -16 11 -16
6 -46 23 -65 38 -19 15 -48 34 -65 43 -39 20 -96 77 -89 88 3 5 24 9 48 9 31
0 53 -8 84 -30 l41 -31 10 38 c18 69 25 127 13 120 -7 -5 -7 4 1 28 9 31 17
37 64 52 l53 17 0 103 0 103 -25 -10 c-22 -8 -27 -6 -40 20 -10 19 -11 31 -5
35 6 4 10 3 9 -2 -4 -24 4 -33 31 -33 l30 0 0 575 0 575 -40 0 c-21 0 -43 -6
-47 -13 -10 -16 -95 -58 -102 -51 -16 16 121 84 169 84 11 0 20 5 20 11 0 7
-12 10 -30 7 -39 -6 -39 8 0 16 l30 6 0 460 0 460 -531 0 c-351 0 -528 -3
-524 -10 3 -5 -1 -10 -9 -10 -8 0 -18 5 -21 10 -3 6 -46 10 -95 10 l-90 0 -35
-37 c-26 -29 -34 -46 -33 -70 1 -18 -1 -35 -5 -39 -4 -4 -7 10 -7 32 0 29 8
49 31 77 l30 37 -214 0 c-211 0 -215 0 -231 -22 l-17 -23 11 23 c10 20 8 22
-18 22 -27 0 -29 -3 -26 -32 4 -32 -11 -62 -27 -52 -5 3 -6 -3 -2 -12 5 -13 3
-15 -8 -9 -8 4 -11 5 -7 0 4 -4 -7 -27 -25 -49 -19 -23 -46 -63 -62 -89 -15
-27 -34 -51 -41 -54 -8 -3 -14 -12 -14 -20 0 -7 -35 -50 -78 -93 -108 -111
-239 -183 -424 -234 -73 -21 -299 -137 -358 -184 -97 -78 -153 -149 -182 -230
-15 -43 -27 -70 -27 -62 -1 37 48 229 68 268 12 23 19 42 15 42 -6 0 6 13 84
93 43 43 84 72 164 112 59 30 123 57 142 61 29 5 47 21 98 87 35 44 73 99 85
121 12 23 22 37 23 33 0 -15 -63 -133 -92 -170 -17 -21 -29 -40 -26 -42 2 -2
40 7 84 20 85 24 185 79 263 144 25 21 71 51 101 66 30 15 56 28 57 29 4 3 33
210 33 233 l0 23 -248 0 -247 0 -24 -62 c-48 -124 -79 -196 -94 -214 -77 -94
-179 -215 -203 -239 -57 -58 -117 -136 -142 -183 -13 -26 -34 -60 -46 -77 -11
-16 -28 -43 -36 -59 -9 -15 -19 -27 -24 -26 -4 1 -14 -7 -21 -17 -13 -17 -14
-17 -20 0 -4 9 -4 34 0 55 8 45 105 220 154 281 20 24 48 59 63 79 16 19 51
60 79 89 28 30 50 56 47 58 -8 9 -317 -304 -355 -360 -24 -36 -51 -95 -67
-147 -24 -79 -26 -97 -21 -210 3 -68 7 -153 10 -190 6 -70 -4 -108 -29 -108
-9 0 -13 -10 -12 -25 1 -23 5 -25 53 -25 28 0 63 -4 76 -9 21 -8 26 -6 31 12
3 11 1 26 -5 33 -7 8 -6 14 1 19 6 4 10 3 9 -2 -1 -4 5 -25 14 -45 10 -21 17
-41 17 -46 0 -18 184 -72 244 -72 51 0 61 3 82 28 13 15 55 63 95 107 39 44
81 94 93 112 11 17 89 111 171 210 172 204 230 278 269 346 15 26 32 47 38 47
5 0 7 -4 4 -9 -3 -4 1 -17 9 -27 9 -10 14 -14 13 -9 -1 6 3 21 10 35 12 22 11
23 -1 8 -22 -28 -31 -21 -12 10 10 15 12 21 4 15 -20 -19 -34 -15 -17 5 16 20
40 70 43 92 1 8 9 35 18 60 23 70 30 130 15 147 -10 12 -9 17 2 27 8 6 16 18
18 26 4 19 105 179 113 180 4 0 10 -17 13 -37 7 -44 37 -145 74 -251 26 -77
47 -90 47 -30 0 20 3 34 8 31 4 -2 7 -13 7 -23 0 -10 4 -21 9 -24 4 -3 18 -32
31 -65 12 -33 28 -62 36 -65 7 -3 33 6 56 19 24 14 48 25 53 25 6 0 -15 -14
-45 -31 -30 -18 -57 -33 -58 -35 -2 -1 3 -26 11 -56 8 -29 25 -96 37 -148 24
-109 35 -133 49 -111 17 26 28 1 35 -74 11 -121 78 -340 102 -331 11 4 18 -8
44 -81 12 -36 58 -258 67 -325 11 -88 7 -260 -7 -303 -14 -42 -136 -170 -178
-186 -13 -5 -45 -9 -72 -9 -41 0 -54 5 -75 28 -29 30 -65 120 -70 169 -1 18
-14 51 -29 73 -14 22 -23 40 -20 40 4 0 -22 31 -57 69 -35 38 -84 92 -108 121
-25 28 -62 63 -83 77 -36 25 -104 116 -149 204 -14 26 -22 61 -23 97 -1 55 0
57 35 77 20 11 37 25 39 30 1 6 4 12 7 15 4 3 3 -2 -1 -10 -8 -17 21 17 34 40
7 12 10 12 27 0 16 -14 17 -13 5 2 -12 15 -10 19 17 32 29 16 49 8 36 -14 -3
-6 1 -7 10 -4 13 5 13 9 3 21 -10 12 -9 18 7 30 11 7 28 12 37 10 9 -3 18 -1
20 4 2 5 22 10 46 12 23 3 45 7 49 11 9 9 63 8 63 -1 0 -5 21 -9 48 -9 26 -1
39 1 29 3 -9 3 -15 8 -13 11 2 4 -8 8 -22 9 -95 6 -134 4 -189 -9 -34 -8 -60
-12 -58 -7 3 4 0 11 -6 15 -7 4 -9 3 -6 -3 5 -9 -25 -43 -39 -43 -3 0 -12 -7
-21 -15 -8 -8 -19 -13 -24 -10 -5 4 -9 3 -9 -2 0 -4 -17 -19 -38 -33 -20 -14
-40 -29 -45 -35 -4 -5 -7 19 -7 55 0 36 -1 85 -3 110 -3 35 2 52 21 78 21 27
27 30 41 20 14 -11 14 -11 4 3 -11 13 -9 19 8 35 12 10 24 18 28 17 3 0 5 4 3
9 -1 6 7 19 19 29 23 20 34 24 25 11 -3 -5 1 -9 9 -9 10 0 11 6 5 23 -7 18 -6
22 4 18 7 -3 16 2 19 10 4 9 13 16 22 16 8 0 15 5 15 11 0 5 -6 7 -12 3 -7 -4
-4 2 6 14 21 25 36 31 16 7 -9 -10 -9 -15 -1 -15 6 0 11 4 11 8 0 5 7 17 16
28 8 10 13 13 9 7 -11 -23 6 -14 38 20 17 17 27 25 23 17 -4 -8 2 -4 14 10 12
14 18 18 14 10 -4 -8 5 -2 19 13 16 17 32 25 40 21 6 -4 8 -3 4 1 -4 5 11 19
35 32 24 12 36 22 28 22 -19 1 -94 -33 -129 -58 -15 -11 -33 -21 -41 -23 -7
-2 -23 -12 -35 -23 -13 -12 -36 -27 -51 -35 -16 -8 -43 -32 -62 -52 -19 -21
-38 -38 -42 -38 -4 0 -22 -13 -40 -30 -18 -16 -29 -30 -25 -30 4 0 2 -7 -5
-15 -7 -8 -16 -12 -21 -9 -5 3 -8 0 -7 -8 2 -7 -2 -12 -9 -11 -7 2 -10 -3 -7
-11 3 -7 -3 -19 -13 -27 -16 -13 -17 -12 -4 4 7 9 9 17 4 17 -5 0 -10 15 -10
33 0 49 -7 97 -13 97 -3 0 -33 -37 -67 -82 -34 -46 -105 -132 -159 -193 -53
-60 -103 -124 -112 -142 -8 -18 -19 -30 -24 -27 -4 3 -8 -3 -8 -13 0 -10 -25
-47 -54 -83 -56 -66 -57 -80 -8 -80 13 0 25 -8 28 -17 15 -47 16 -48 26 -20 6
17 15 26 23 23 7 -2 21 4 31 15 22 25 34 24 34 -2 0 -11 -4 -18 -9 -14 -5 3
-12 1 -16 -5 -3 -5 -1 -10 6 -10 6 0 9 -8 6 -20 -3 -10 1 -24 8 -30 10 -8 20
1 43 41 17 30 32 47 36 40 14 -21 34 -11 41 22 l7 32 10 -27 c8 -22 5 -35 -18
-73 -14 -25 -23 -49 -19 -53 6 -7 36 24 54 56 7 12 19 3 59 -38 43 -44 54 -51
66 -41 23 19 52 4 90 -47 19 -26 62 -74 96 -107 33 -33 74 -78 89 -100 16 -22
38 -51 50 -64 11 -12 26 -39 32 -59 7 -20 24 -57 39 -82 29 -48 68 -156 121
-333 27 -90 37 -111 58 -121 14 -8 36 -12 49 -10 14 3 22 -1 22 -11 0 -21 38
-19 43 3 4 16 5 15 6 -1 1 -16 7 -15 59 14 74 41 105 70 96 92 -3 9 -11 14
-18 10 -6 -4 -5 1 3 10 17 21 31 22 31 2 0 -8 5 -15 11 -15 5 0 7 5 4 10 -3 6
1 10 9 10 8 0 17 4 20 9 3 5 0 9 -7 8 -50 -2 -52 2 -18 37 21 21 30 39 26 47
-5 8 -4 10 3 5 11 -7 17 7 12 29 -1 6 2 7 6 3 10 -11 37 30 28 44 -4 6 -3 9 2
5 5 -3 18 15 28 39 10 24 23 44 28 44 6 0 33 -12 61 -27 47 -26 49 -28 24 -31
-15 -2 -27 -8 -27 -14 0 -5 7 -8 15 -4 20 7 77 -14 72 -28 -2 -6 -13 -15 -24
-21 -12 -5 -27 -21 -33 -34 -11 -25 -11 -25 7 -9 18 16 20 16 44 0 41 -27 63
-53 53 -60 -6 -4 -8 -28 -6 -54 l4 -48 44 0 c31 0 44 -4 44 -14 0 -8 6 -16 13
-19 23 -8 -38 -12 -93 -6 -30 3 -47 6 -37 7 14 2 17 12 17 53 l0 50 -32 -3
c-22 -2 -32 -8 -30 -17 2 -8 0 -32 -3 -53 -6 -35 -9 -37 -33 -31 -34 8 -42 19
-42 65 0 27 5 40 20 48 11 6 20 16 20 23 0 8 -4 6 -10 -3 -9 -13 -11 -13 -20
0 -5 8 -8 21 -5 28 2 6 1 12 -4 12 -4 0 -8 7 -8 15 0 10 6 14 16 10 8 -3 12
-3 9 1 -4 3 3 15 15 25 l22 19 -27 -10 c-27 -9 -41 3 -15 13 7 4 6 6 -5 6 -9
1 -29 -14 -44 -31 -32 -40 -82 -71 -99 -64 -7 2 -21 -4 -31 -15 -16 -18 -16
-19 8 -19 30 0 88 27 88 42 0 6 7 5 17 -3 11 -10 14 -10 9 -1 -4 7 -1 12 8 12
21 0 20 -16 -1 -30 -16 -10 -15 -11 4 -7 12 3 27 -1 33 -8 8 -9 4 -11 -15 -7
-15 2 -25 0 -25 -7 0 -7 5 -9 12 -5 7 5 8 3 3 -7 -9 -13 -7 -200 1 -209 3 -2
30 -4 61 -4 41 1 51 -1 38 -9 -10 -5 -37 -7 -61 -3 -26 3 -44 2 -44 -4 0 -6
17 -10 38 -10 32 0 43 -7 80 -47 l42 -48 -27 -7 c-16 -3 4 -5 42 -3 42 2 56 1
36 -3 l-33 -7 21 -20 c14 -12 36 -19 59 -19 35 1 35 1 5 -3 -18 -2 -33 -8 -33
-13 0 -13 33 -21 97 -25 72 -5 81 -15 12 -15 l-54 0 30 -25 c26 -21 41 -25
120 -27 l90 -2 -85 -6 c-47 -3 -71 -7 -55 -9 23 -2 26 -4 12 -10 -16 -6 -16
-9 8 -31 14 -13 25 -27 25 -32 0 -12 -34 -10 -48 4 -9 9 -12 9 -12 -1 0 -7 -4
-9 -10 -6 -5 3 -10 1 -10 -4 0 -6 21 -11 49 -11 31 0 53 -5 61 -15 9 -11 24
-14 49 -10 33 5 30 1 -8 -11 -10 -3 -6 -13 17 -37 37 -38 44 -62 9 -29 -13 12
-26 19 -30 15 -4 -3 -16 2 -27 12 -29 26 -49 28 -42 3 3 -13 7 -16 12 -8 12
20 20 -15 10 -47 -8 -26 -10 -27 -14 -5 -2 13 -95 102 -106 102 -5 0 -7 7 -4
15 5 11 -1 15 -22 15 -36 0 -70 19 -39 21 11 1 25 1 30 0 6 0 1 5 -10 12 -48
31 -92 81 -87 100 3 13 1 18 -5 14 -6 -4 -24 0 -39 8 -16 8 -25 15 -20 15 4 0
-6 14 -23 32 -17 17 -31 35 -31 40 0 4 -10 8 -22 9 -22 0 -22 1 -3 9 l20 9
-20 1 c-11 1 -14 4 -7 7 19 7 14 22 -5 17 -12 -3 -24 5 -35 23 l-17 28 -2 -25
c-1 -14 -1 -30 0 -37 2 -16 -16 -20 -150 -38 -116 -15 -411 -73 -504 -99 -146
-41 -243 -72 -361 -117 -200 -74 -229 -88 -216 -101 8 -8 52 5 166 50 207 82
406 143 606 185 188 40 385 71 406 63 7 -3 16 -1 19 4 9 15 25 12 25 -5 0 -8
-7 -15 -15 -15 -8 0 -15 -4 -15 -10 0 -5 5 -10 10 -10 6 0 10 -4 10 -9 0 -11
-26 -8 -37 4 -4 4 -2 5 4 1 9 -5 11 -2 6 9 -4 13 -8 14 -13 4 -5 -7 -6 -18 -3
-25 2 -7 -5 -17 -16 -24 -12 -6 -21 -16 -20 -23 0 -9 2 -9 6 1 8 19 22 14 34
-12 10 -21 15 -23 37 -15 18 7 28 6 34 -3 13 -22 9 -25 -29 -23 -21 0 -43 -4
-50 -11 -8 -7 -51 -12 -115 -13 -129 -2 -349 -17 -448 -31 -41 -6 -82 -11 -90
-12 -8 0 -37 -5 -65 -10 -27 -5 -59 -11 -70 -12 -93 -13 -307 -60 -349 -76
-29 -10 -34 -35 -11 -44 19 -7 19 -36 0 -36 -16 0 -21 -15 -7 -24 4 -2 59 2
122 11 180 23 560 18 560 -8 0 -14 -81 -61 -96 -55 -8 3 -14 1 -14 -5 0 -6
-12 -20 -26 -31 -17 -14 -24 -27 -20 -40 7 -28 -3 -48 -24 -48 -10 0 -23 -7
-30 -15 -7 -8 -21 -15 -31 -15 -10 0 -33 -9 -51 -20 -18 -11 -45 -20 -60 -20
-48 0 -130 -22 -147 -39 -9 -9 -36 -25 -60 -36 -42 -19 -44 -19 -57 0 -8 10
-14 24 -14 30 0 6 -10 21 -22 32 -21 20 -26 20 -55 8 -21 -9 -35 -23 -39 -41
-7 -26 -8 -26 -68 -19 -33 3 -63 10 -66 14 -15 22 -114 51 -172 51 -63 0 -185
21 -210 36 -16 10 -92 5 -96 -7 -5 -11 -42 -12 -42 -1 0 14 -48 32 -85 32 -28
0 -35 -4 -35 -20 0 -22 -10 -26 -27 -9 -13 13 -53 -9 -53 -28 0 -18 -45 -16
-60 2 -17 20 -33 19 -48 -5 -10 -16 -10 -20 0 -20 16 0 -28 -31 -48 -34 -9 -1
-21 -13 -27 -27 -8 -15 -23 -25 -39 -27 -25 -3 -27 -1 -23 30 3 30 2 31 -10
15 -8 -12 -15 -14 -20 -7 -3 5 -11 8 -16 4 -5 -3 -16 0 -24 6 -18 15 -75 3
-75 -16 0 -20 -26 -17 -42 4 -7 10 -23 21 -36 25 -19 4 -21 3 -12 -8 18 -22
-24 -7 -51 18 -41 39 -82 66 -90 61 -5 -3 -9 -1 -9 3 0 5 -9 9 -20 10 -11 1
-18 -2 -15 -8 10 -15 -24 -22 -40 -9 -8 7 -15 10 -15 8 0 -3 -19 12 -42 33
-35 33 -43 37 -52 23 -10 -13 -15 -11 -39 16 -19 21 -23 32 -15 35 43 13 176
25 325 27 157 3 173 5 173 21 0 9 -4 17 -10 17 -5 0 -10 7 -10 15 0 8 5 15 10
15 17 0 11 29 -7 38 -18 10 -81 17 -213 27 -41 3 -90 8 -108 11 -18 3 -135 5
-259 5 l-227 1 -29 28 c-16 16 -26 33 -22 39 3 6 1 11 -5 11 -6 0 -8 5 -4 11
4 8 0 8 -15 0 -17 -10 -21 -9 -21 4 0 9 4 14 9 11 5 -4 7 3 4 14 -5 19 -2 20
53 14 271 -27 491 -67 714 -128 102 -28 127 -32 138 -22 11 10 -13 20 -125 49
-126 33 -238 59 -310 71 -16 3 -68 12 -118 21 -49 9 -151 21 -225 27 -149 12
-154 15 -165 80 -5 29 -13 42 -31 48 -18 7 -24 17 -24 39 0 16 6 36 14 43 9
10 14 42 14 102 1 69 4 92 18 107 27 30 51 23 127 -39 84 -67 114 -85 127 -77
6 4 10 2 10 -3 0 -10 52 -32 75 -32 16 0 52 127 61 213 l7 68 -35 -6 c-44 -8
-99 6 -138 37 -78 59 -124 106 -138 138 -47 106 -52 387 -11 635 13 81 18 93
28 76 11 -17 35 64 51 173 10 64 9 80 -2 88 -8 6 1 7 27 3 22 -4 70 -6 108 -5
40 1 67 -3 67 -9 0 -6 7 -8 15 -5 8 4 15 1 15 -5 0 -6 7 -8 15 -5 8 4 15 1 15
-5 0 -6 7 -8 15 -5 8 4 15 2 15 -4 0 -6 13 -15 30 -21 16 -5 30 -15 30 -21 0
-6 4 -8 10 -5 5 3 19 0 30 -8 19 -13 19 -15 4 -21 -9 -4 -19 -4 -22 -1 -3 3 1
5 9 5 12 0 12 2 0 9 -8 5 -20 7 -28 4 -7 -3 -13 0 -13 7 0 6 -5 8 -10 5 -15
-10 -12 -25 6 -25 11 0 14 -6 9 -22 -4 -13 -11 -27 -16 -33 -11 -11 -12 -45
-1 -45 5 0 6 -26 4 -58 -3 -37 1 -69 11 -92 11 -26 16 -30 16 -15 1 12 -4 26
-9 31 -12 12 6 74 21 74 4 0 11 -16 15 -35 3 -19 8 -35 11 -35 12 0 79 35 85
44 11 16 9 66 -2 66 -6 0 -8 11 -6 25 3 18 0 25 -11 25 -14 0 -14 3 2 20 18
20 18 21 -1 14 -14 -4 -16 -4 -5 4 20 14 41 4 52 -25 7 -19 15 -24 29 -20 11
3 27 -1 34 -9 8 -8 18 -14 23 -14 4 0 22 -13 40 -28 l31 -27 -32 -65 c-42 -85
-47 -100 -36 -100 5 0 19 10 30 22 17 18 23 20 29 9 7 -11 18 -4 48 28 35 38
41 41 52 27 8 -9 20 -16 29 -16 12 0 9 7 -10 28 -24 25 -25 29 -12 47 15 20
16 19 47 -18 18 -20 37 -37 44 -37 21 0 24 18 9 47 -8 16 -12 40 -9 55 3 15 0
49 -5 75 -6 26 -13 68 -16 93 -5 39 -2 35 23 -35 28 -81 58 -146 71 -155 4 -3
12 -14 18 -25 21 -36 14 9 -9 62 -12 26 -21 58 -21 70 0 13 -4 20 -9 17 -5 -3
-6 3 -2 12 5 12 3 15 -6 9 -10 -6 -11 -2 -6 15 4 12 3 20 -1 17 -5 -3 -9 5 -9
18 0 18 3 21 13 13 7 -6 32 -8 56 -6 36 4 45 2 49 -12 3 -13 -2 -16 -27 -15
-17 1 -40 5 -51 9 -16 6 -17 6 -5 -3 8 -6 12 -11 8 -11 -4 0 -2 -13 3 -30 7
-19 18 -30 30 -30 10 0 19 -6 19 -12 0 -9 4 -8 11 2 8 11 12 12 16 3 2 -7 9
-13 14 -13 6 0 8 4 5 8 -3 5 8 6 25 4 17 -3 29 0 29 7 0 6 8 11 18 12 14 0 14
2 -3 9 -11 5 -14 9 -7 9 17 1 15 21 -3 21 -10 0 -15 10 -15 30 0 17 -5 30 -11
30 -5 0 -8 3 -6 8 3 4 -1 21 -7 37 -12 29 -13 29 -20 7 -4 -12 -12 -20 -17
-17 -5 4 -2 13 7 22 11 12 14 25 9 47 -27 131 -36 203 -33 286 l3 95 -60 8
c-56 8 -81 16 -147 47 -15 7 -33 10 -40 7 -10 -3 -19 15 -32 67 -31 120 -117
440 -123 456 -3 8 -7 20 -8 25 -2 6 -10 34 -18 63 l-16 52 27 -6 c29 -7 61
-40 62 -64 0 -8 9 -21 20 -28 11 -7 20 -21 20 -32 0 -11 5 -20 10 -20 6 0 10
7 10 15 0 8 4 15 8 15 5 0 16 6 25 13 16 11 15 16 -8 61 -23 46 -24 50 -7 62
14 11 -12 13 -165 13 -150 -1 -181 -4 -176 -15 3 -8 9 -14 13 -14 4 0 10 -21
14 -47 6 -51 44 -224 78 -358 25 -98 26 -114 16 -144 -7 -19 -5 -22 7 -17 9 3
13 2 10 -3 -3 -5 0 -13 6 -17 6 -3 9 -19 5 -35 -3 -15 -1 -29 4 -31 6 -2 12
-28 15 -60 3 -43 1 -57 -10 -62 -8 -3 -17 -1 -20 4 -4 6 -10 10 -15 10 -6 0
-2 -9 7 -20 11 -13 21 -16 27 -10 17 17 24 11 31 -30 4 -22 10 -38 14 -36 3 2
7 -10 7 -27 1 -18 -1 -26 -3 -19 -3 6 -10 9 -15 6 -7 -4 -8 -2 -4 4 3 6 -1 15
-9 19 -8 5 -17 20 -20 33 -2 13 -16 35 -30 50 -14 14 -22 29 -18 33 3 4 1 7
-5 7 -6 0 -21 14 -33 32 -19 26 -20 31 -5 25 9 -4 15 -3 11 2 -3 5 0 11 7 13
9 3 9 6 0 12 -7 4 -12 2 -12 -3 0 -17 -25 -13 -43 7 -25 27 -21 38 6 16 l22
-19 -18 22 c-12 14 -15 23 -8 28 6 3 11 11 11 17 0 5 -8 0 -18 -12 l-18 -22
-46 59 c-26 32 -64 77 -84 100 l-36 42 27 178 c34 232 32 217 40 253 l7 31
-73 -3 -73 -3 -8 -33 c-8 -29 -11 -32 -25 -21 -8 7 -19 23 -24 36 l-9 23 -810
0 -810 0 0 -454z m4806 418 c-4 -9 -9 -15 -11 -12 -3 3 -3 13 1 22 4 9 9 15
11 12 3 -3 3 -13 -1 -22z m-27 -73 c-7 -23 -14 -39 -16 -37 -3 2 1 23 8 45 7
23 14 39 16 37 3 -2 -1 -23 -8 -45z m-3544 -66 c0 -10 -6 -20 -12 -22 -8 -3
-13 5 -13 22 0 17 5 25 13 23 6 -3 12 -13 12 -23z m3334 -14 c-15 -5 -22 6
-14 19 6 9 10 9 16 -1 5 -8 4 -15 -2 -18z m-2945 -33 c-24 -83 -22 -80 -41
-69 -10 6 -34 24 -53 41 -29 25 -32 31 -20 40 8 5 32 10 52 10 21 0 43 7 50
15 24 26 27 16 12 -37z m3121 3 c-3 -12 -16 -26 -28 -32 -22 -11 -22 -11 1 10
12 12 22 29 22 38 0 9 3 14 6 10 3 -3 3 -15 -1 -26z m-3162 -111 c12 -11 -74
-321 -87 -317 -6 2 -20 21 -32 43 -13 25 -31 42 -51 49 -16 6 -36 15 -44 21
-8 6 -24 15 -36 18 -39 12 -47 32 -24 62 12 15 21 35 21 46 0 26 67 58 80 38
5 -7 17 -15 27 -16 10 -1 32 -5 50 -9 30 -7 32 -6 29 20 -2 15 -10 32 -19 37
-12 6 -17 23 -17 55 l0 46 48 -43 c26 -24 51 -46 55 -50z m3017 27 c0 -1 -26
-27 -57 -57 l-58 -55 55 58 c50 53 60 62 60 54z m-3553 -74 c27 -18 30 -19 71
-21 12 -1 22 -9 22 -17 0 -17 -11 -20 -25 -6 -6 5 -23 11 -40 14 -43 6 -65 17
-65 33 0 18 5 18 37 -3z m-231 -84 c3 -6 1 -14 -5 -18 -7 -5 -3 -12 14 -19 14
-6 25 -16 25 -22 0 -8 -6 -8 -20 0 -11 6 -31 8 -45 4 -18 -4 -27 -2 -31 11 -7
18 14 38 30 28 5 -4 7 1 3 10 -7 19 17 24 29 6z m898 -81 c8 -37 22 -35 30 4
6 30 6 31 26 13 39 -35 171 -215 173 -234 0 -11 4 -18 8 -16 8 6 40 -31 68
-77 21 -35 21 -37 3 -42 -10 -4 -19 -13 -19 -20 0 -8 6 -12 14 -9 7 3 10 10 7
15 -4 6 2 8 11 6 18 -3 47 -48 53 -80 2 -12 -3 -16 -18 -13 -11 2 -20 -1 -20
-7 0 -5 6 -8 14 -5 7 3 19 0 26 -6 10 -9 11 -9 6 0 -3 6 -3 14 2 16 4 3 13 -6
19 -20 10 -21 10 -23 -3 -13 -17 15 -19 -1 -1 -20 6 -8 3 -7 -9 3 -11 9 -24
14 -27 11 -4 -4 -19 -7 -33 -8 -33 -1 -46 -26 -14 -26 12 0 29 4 39 9 13 7 17
5 17 -9 0 -14 -3 -16 -13 -8 -10 8 -13 6 -13 -6 0 -9 -7 -19 -16 -23 -9 -3
-13 -12 -9 -22 4 -9 -8 -3 -27 14 -18 16 -37 34 -43 39 -7 6 -6 7 1 3 6 -3 11
0 11 8 0 8 -4 12 -9 9 -5 -3 -16 -3 -26 1 -14 5 -14 7 -2 16 12 9 11 10 -4 5
-19 -6 -86 28 -86 45 0 5 -5 9 -11 9 -6 0 -29 13 -52 29 -23 15 -70 43 -104
60 -50 25 -63 36 -63 54 1 49 47 253 70 312 13 31 14 30 24 -17z m-1186 -1 c2
-10 1 -25 -2 -34 -6 -14 -11 -12 -36 12 -16 15 -27 32 -24 37 10 16 59 4 62
-15z m389 -2 c3 -9 3 -18 0 -21 -10 -10 -47 7 -47 22 0 19 39 18 47 -1z m173
-7 c0 -16 -3 -19 -11 -11 -6 6 -8 16 -5 22 11 17 16 13 16 -11z m-488 -5 c11
-9 18 -11 18 -5 0 7 5 12 11 12 7 0 9 -12 5 -34 -4 -20 -2 -37 4 -41 5 -3 10
-17 10 -29 0 -18 7 -25 31 -30 19 -4 33 -13 36 -26 3 -10 14 -22 24 -25 10 -4
19 -10 19 -15 0 -13 -46 -24 -66 -16 -23 9 -54 -33 -47 -63 4 -16 2 -22 -5
-17 -7 4 -28 0 -47 -10 -19 -9 -41 -14 -49 -11 -8 3 -20 -2 -28 -10 -11 -14
-11 -16 4 -10 20 7 35 -10 20 -25 -6 -6 -16 -1 -30 16 -11 14 -28 26 -38 26
-16 0 -17 -2 -4 -10 11 -7 8 -10 -16 -10 -18 0 -38 8 -49 20 -10 11 -26 18
-35 15 -13 -4 -15 1 -12 29 4 32 2 34 -35 40 -56 10 -73 16 -73 27 0 5 14 9
30 9 28 0 30 2 28 33 -3 29 0 32 22 30 19 -2 30 6 48 33 13 21 20 44 17 57 -7
30 8 51 31 43 11 -3 32 -24 47 -46 16 -22 33 -40 40 -40 6 0 21 -10 34 -21 21
-20 23 -21 29 -4 4 10 0 30 -10 46 -10 18 -14 38 -10 54 7 29 20 32 46 8z
m734 -25 c4 -6 8 -25 9 -40 2 -27 -1 -29 -29 -26 -26 3 -31 7 -28 28 1 14 4
31 7 38 6 15 32 16 41 0z m-296 -149 c0 -19 -43 -44 -63 -36 -8 3 -19 24 -24
46 -6 22 -7 38 -2 35 5 -3 9 0 9 6 0 6 18 0 40 -12 22 -13 40 -30 40 -39z
m430 -48 c0 -14 -5 -18 -20 -14 -25 7 -26 20 -2 26 9 3 18 5 20 6 1 0 2 -8 2
-18z m2117 -66 c0 -8 -4 -12 -9 -9 -4 3 -8 -2 -8 -11 0 -9 -4 -13 -10 -10 -5
3 -10 2 -10 -3 0 -5 -11 -22 -25 -38 l-25 -29 0 38 c0 28 7 44 25 61 27 25 62
25 62 1z m-3216 -42 c12 -15 12 -16 -2 -11 -9 4 -21 2 -27 -4 -9 -9 -10 5 -3
30 3 8 21 0 32 -15z m3108 -28 c-2 -25 -7 -45 -12 -45 -5 0 -3 -8 4 -17 8 -9
9 -14 3 -10 -6 3 -20 0 -30 -8 -10 -8 -26 -15 -33 -15 -8 0 -26 -11 -40 -24
-27 -25 -74 -38 -79 -21 -7 23 32 85 62 99 17 9 51 31 76 51 25 19 46 35 48
35 2 0 2 -20 1 -45z m-2682 -2 c36 -42 40 -58 18 -67 -41 -15 -100 58 -72 90
17 19 17 18 54 -23z m-138 -14 c23 -31 22 -59 -2 -59 -20 0 -33 19 -42 58 -9
42 13 43 44 1z m1004 10 c68 -34 196 -122 190 -132 -3 -4 2 -7 11 -5 19 4 103
-61 109 -84 6 -21 -8 -33 -19 -17 -5 8 -3 9 7 4 8 -5 1 4 -15 19 -30 28 -43
28 -32 0 4 -9 9 -14 13 -11 9 9 32 -24 33 -46 0 -10 5 -15 10 -12 6 4 8 10 5
15 -3 4 2 13 10 20 20 17 21 -9 0 -36 -22 -29 -17 -43 6 -15 11 13 22 22 24
19 3 -3 -1 -11 -10 -18 -22 -18 -18 -45 8 -58 l22 -10 -22 1 c-13 1 -23 6 -23
11 0 5 -3 6 -6 3 -4 -4 -20 3 -35 14 -20 14 -28 27 -25 42 1 12 1 16 -1 9 -3
-7 -9 -10 -14 -7 -5 3 -6 -2 -2 -11 5 -13 3 -15 -8 -8 -8 4 -23 10 -34 11 -11
2 -21 8 -23 13 -2 5 -10 6 -18 3 -8 -3 -14 0 -14 6 0 6 -7 8 -15 5 -8 -4 -15
-2 -15 3 0 5 -37 10 -82 11 -46 2 -98 5 -115 9 l-33 5 0 74 c0 71 10 94 24 57
11 -28 24 2 32 74 3 35 8 63 11 63 2 0 23 -9 46 -21z m4144 -35 c-16 -9 -31
-13 -34 -10 -3 3 5 10 18 15 37 15 47 12 16 -5z m-1112 -14 c3 -5 1 -10 -4
-10 -6 0 -11 5 -11 10 0 6 2 10 4 10 3 0 8 -4 11 -10z m-2375 -55 c0 -5 -5 -3
-10 5 -5 8 -10 20 -10 25 0 6 5 3 10 -5 5 -8 10 -19 10 -25z m58 -10 c-3 -3
-9 2 -12 12 -6 14 -5 15 5 6 7 -7 10 -15 7 -18z m-1973 -11 c19 -15 19 -15
-10 -9 l-30 7 25 -21 25 -21 -32 10 c-18 5 -33 7 -33 4 0 -2 -9 5 -20 16 -11
11 -20 22 -20 25 0 12 77 3 95 -11z m1983 -29 c-3 -3 -9 2 -12 12 -6 14 -5 15
5 6 7 -7 10 -15 7 -18z m-1820 -49 c10 -9 9 -16 -3 -31 -8 -11 -14 -15 -13 -9
2 6 -10 23 -27 38 l-30 27 30 -6 c17 -3 36 -12 43 -19z m821 -5 c-6 -2 -18 4
-27 13 -15 15 -15 15 10 4 15 -7 23 -15 17 -17z m-8 -11 c14 0 11 -26 -5 -39
-10 -9 -17 -7 -27 6 -12 15 -12 16 4 10 9 -3 17 -5 17 -2 0 2 -8 12 -17 21
-17 17 -17 18 0 11 10 -4 23 -7 28 -7z m686 -104 c2 -16 1 -18 -6 -6 -5 8 -7
18 -5 22 8 12 -11 9 -24 -4 -8 -8 -12 -9 -12 -1 0 6 6 13 13 16 9 3 7 9 -5 24
-10 11 -18 23 -18 27 0 16 54 -58 57 -78z m2693 62 c0 -7 14 -21 31 -30 l30
-18 -20 -29 -20 -28 22 -20 c12 -10 35 -25 50 -31 24 -10 26 -15 17 -32 -6
-11 -15 -20 -21 -20 -6 0 -7 5 -3 11 5 8 1 8 -14 0 -34 -18 -40 -13 -48 37 -3
26 -17 75 -30 110 -19 50 -20 62 -9 62 8 0 15 -6 15 -12z m1047 -10 c-3 -8 -6
-5 -6 6 -1 11 2 17 5 13 3 -3 4 -12 1 -19z m-488 -7 c8 -14 7 -20 -4 -24 -9
-4 -12 -1 -8 9 7 19 -3 18 -40 -7 -32 -20 -32 -20 3 10 19 17 35 31 37 31 1 0
7 -9 12 -19z m-4673 -13 l19 -23 -25 20 c-14 11 -27 21 -29 22 -2 2 0 3 6 3 5
0 18 -10 29 -22z m859 4 c-3 -3 -11 0 -18 7 -9 10 -8 11 6 5 10 -3 15 -9 12
-12z m1342 -4 c-3 -8 -6 -5 -6 6 -1 11 2 17 5 13 3 -3 4 -12 1 -19z m-2237 2
c8 -5 11 -10 5 -10 -5 0 10 -19 35 -41 43 -39 43 -40 5 -11 -46 34 -82 72 -69
72 5 0 16 -5 24 -10z m3017 -22 c-3 -8 -6 -5 -6 6 -1 11 2 17 5 13 3 -3 4 -12
1 -19z m-3002 -46 c17 -15 26 -24 20 -20 -5 3 -13 7 -18 7 -13 1 -47 26 -47
33 0 14 15 8 45 -20z m716 11 c12 -15 12 -16 -3 -10 -10 3 -18 2 -18 -3 0 -6
8 -10 17 -10 9 0 13 -3 10 -6 -4 -4 -27 -1 -52 6 -30 8 -42 16 -34 21 7 4 17
5 21 3 4 -3 16 0 25 5 10 6 19 11 19 11 1 0 8 -8 15 -17z m2269 -63 c-17 -32
-19 -21 -6 35 10 45 11 46 14 18 2 -18 -2 -42 -8 -53z m-1540 40 c-13 -9 -7
-14 12 -11 4 0 5 -6 1 -15 -5 -15 -7 -15 -15 0 -5 9 -15 13 -21 9 -7 -3 -3 3
7 15 11 12 22 20 25 17 3 -4 -1 -10 -9 -15z m-1452 -14 c35 -17 95 -19 85 -3
-5 9 -3 9 8 1 8 -7 30 -14 49 -17 50 -8 90 -21 135 -46 l40 -22 -32 7 c-24 4
-33 2 -33 -8 0 -10 -3 -9 -10 2 -5 8 -10 11 -10 6 0 -5 -9 -1 -21 10 -13 11
-19 13 -17 5 2 -8 -8 -14 -25 -16 -15 -2 -25 0 -22 5 3 5 0 12 -6 16 -8 4 -9
3 -5 -5 6 -8 0 -10 -18 -5 -15 3 -26 2 -26 -4 0 -5 15 -13 33 -16 53 -10 149
-61 197 -105 l45 -42 -43 21 c-23 11 -40 25 -37 30 4 6 2 10 -4 10 -5 0 -12
-6 -14 -12 -4 -8 -8 -4 -12 10 -6 19 -22 27 -47 23 -5 0 -8 3 -8 8 0 5 -7 12
-16 15 -8 3 -13 2 -9 -3 3 -5 -1 -16 -9 -24 -11 -11 -12 -17 -3 -27 10 -10 9
-11 -3 -4 -8 5 -17 9 -20 10 -3 1 -20 5 -37 9 -18 4 -31 10 -29 14 3 4 -11 5
-31 3 l-35 -4 25 -25 c14 -15 37 -26 54 -26 25 -1 29 -5 25 -21 -5 -20 -5 -20
-13 0 -7 19 -8 19 -9 -1 -1 -18 -2 -18 -13 -4 -7 9 -17 14 -24 12 -11 -4 -55
20 -80 43 -9 9 -9 14 0 24 9 10 9 11 -1 6 -7 -4 -30 0 -50 10 -20 10 -46 17
-57 17 -16 -1 -17 -1 -2 3 9 3 14 10 10 16 -4 7 0 9 10 5 8 -3 21 1 27 9 13
15 0 19 -43 16 -10 -1 -15 3 -12 8 3 6 1 10 -4 10 -6 0 -11 -4 -11 -10 0 -5
-4 -10 -10 -10 -5 0 -10 8 -10 17 0 9 3 13 7 10 3 -4 17 0 31 9 13 9 21 11 18
5 -8 -13 4 -14 23 -2 8 5 10 14 6 22 -6 11 -5 12 6 2 7 -7 22 -13 34 -13 19 1
19 1 3 14 -10 7 -18 16 -18 20 0 11 40 7 68 -8z m4688 -8 c-1 -13 -6 -22 -9
-20 -7 2 -7 10 0 30 8 20 13 14 9 -10z m-1829 -10 c-3 -8 -6 -5 -6 6 -1 11 2
17 5 13 3 -3 4 -12 1 -19z m-1512 2 c-3 -5 -12 -10 -18 -10 -7 0 -6 4 3 10 19
12 23 12 15 0z m-636 -9 c9 -6 -5 -10 -43 -12 -52 -4 -72 3 -43 14 20 9 71 7
86 -2z m806 -10 c3 -5 2 -12 -3 -15 -5 -3 -9 1 -9 9 0 17 3 19 12 6z m3625
-36 c-7 -8 -35 -31 -63 -51 l-50 -36 59 67 c41 47 60 62 62 50 2 -9 -2 -22 -8
-30z m-3558 -10 c10 -40 2 -44 -27 -13 -17 19 -21 28 -12 37 17 17 30 8 39
-24z m2872 13 c-3 -7 -25 -29 -48 -48 l-41 -34 45 47 c47 50 53 54 44 35z
m-3751 -54 c-1 -16 -3 -39 -4 -52 -1 -12 -10 -27 -20 -33 -23 -12 -25 -29 -4
-29 8 0 15 -7 15 -16 0 -12 -10 -15 -48 -13 -26 1 -53 -1 -60 -5 -8 -5 -12 0
-11 16 0 13 3 18 5 12 6 -14 44 -6 44 8 0 5 5 6 12 2 7 -4 8 -3 4 5 -4 6 -12
9 -17 6 -5 -4 -9 -2 -9 4 0 5 5 11 12 13 7 3 8 9 3 19 -10 15 -8 57 3 74 4 6
7 15 7 20 0 6 9 9 19 7 13 -2 16 1 10 10 -5 8 0 7 16 -3 18 -12 24 -24 23 -45z
m4064 -2 c1 -20 -5 -48 -12 -62 -27 -53 -27 -67 -1 -74 13 -3 26 -12 29 -21 5
-12 1 -12 -28 2 -19 9 -35 20 -35 24 0 4 -8 5 -19 2 -10 -3 -22 0 -25 5 -11
18 6 42 30 42 22 0 32 18 18 33 -4 4 -8 22 -10 41 -2 25 2 38 13 45 27 14 39
3 40 -37z m-3037 -15 c0 -5 -4 -5 -10 -2 -5 3 -10 14 -10 23 0 15 2 15 10 2 5
-8 10 -19 10 -23z m-1445 13 c3 -5 -1 -10 -10 -10 -9 0 -13 5 -10 10 3 6 8 10
10 10 2 0 7 -4 10 -10z m312 -22 c-3 -7 -5 -2 -5 12 0 14 2 19 5 13 2 -7 2
-19 0 -25z m4353 -14 c0 -3 -10 -2 -22 2 -21 6 -21 5 -9 -10 8 -9 20 -15 28
-12 8 3 25 -1 39 -10 19 -13 22 -20 13 -30 -18 -22 -35 -17 -63 21 -31 40 -42
43 -51 15 -5 -15 -15 -20 -41 -20 -20 0 -34 -5 -34 -12 0 -10 -3 -9 -9 1 -5 8
-14 10 -22 5 -11 -6 -11 -4 0 10 8 10 23 15 33 13 10 -3 21 0 25 5 4 7 1 8 -7
3 -8 -5 -11 -3 -8 6 2 8 19 22 38 31 30 15 36 15 62 2 15 -8 28 -17 28 -20z
m-4635 17 c3 -5 1 -12 -5 -16 -5 -3 -10 1 -10 9 0 18 6 21 15 7z m-370 -32
c19 -17 35 -36 35 -42 0 -5 -14 5 -31 22 -29 31 -31 32 -45 14 -15 -20 -15
-19 -19 15 -3 31 18 28 60 -9z m5205 12 c0 -12 -20 -25 -27 -18 -7 7 6 27 18
27 5 0 9 -4 9 -9z m-4940 -21 c0 -5 -5 -10 -11 -10 -8 0 -7 -6 2 -17 13 -16
12 -17 -3 -5 -9 8 -14 20 -11 28 6 16 23 19 23 4z m378 -14 c0 -16 -5 -23 -13
-19 -8 3 -15 -5 -17 -19 -3 -22 -4 -22 -9 4 -4 15 -2 25 2 22 5 -2 14 4 21 16
16 25 16 25 16 -4z m-1083 4 c-3 -5 -13 -10 -21 -10 -8 0 -14 5 -14 10 0 6 9
10 21 10 11 0 17 -4 14 -10z m4710 -19 c-6 -5 -25 10 -25 20 0 5 6 4 14 -3 8
-7 12 -15 11 -17z m1025 25 c0 -2 -7 -7 -16 -10 -8 -3 -12 -2 -9 4 6 10 25 14
25 6z m-5463 -12 c-3 -3 -12 -4 -19 -1 -8 3 -5 6 6 6 11 1 17 -2 13 -5z m133
-20 c0 -8 -5 -12 -10 -9 -6 4 -8 11 -5 16 9 14 15 11 15 -7z m5289 13 c-2 -1
-13 -9 -24 -17 -19 -14 -19 -14 -6 3 7 9 18 17 24 17 6 0 8 -1 6 -3z m-419
-27 c0 -5 -6 -12 -12 -16 -7 -4 -10 -4 -6 1 4 4 3 14 -4 22 -8 11 -7 12 6 7 9
-3 16 -10 16 -14z m-4315 -8 c-3 -3 -11 0 -18 7 -9 10 -8 11 6 5 10 -3 15 -9
12 -12z m-578 2 c-3 -3 -12 -4 -19 -1 -8 3 -5 6 6 6 11 1 17 -2 13 -5z m-431
-16 c4 -6 3 -8 -4 -4 -5 3 -12 1 -14 -6 -3 -8 -7 -6 -11 5 -7 20 17 24 29 5z
m5674 8 c0 -3 -28 -26 -62 -52 -35 -26 -56 -39 -48 -29 13 15 100 84 108 85 1
0 2 -2 2 -4z m-5599 -27 c23 -12 16 -29 -12 -29 -12 0 -19 7 -19 20 0 23 4 24
31 9z m224 -9 c3 -6 -1 -7 -9 -4 -18 7 -21 14 -7 14 6 0 13 -4 16 -10z m4888
-5 c-3 -9 -8 -14 -10 -11 -3 3 -2 9 2 15 9 16 15 13 8 -4z m-4697 -27 l16 -33
-21 22 c-11 12 -21 27 -21 33 0 18 9 11 26 -22z m394 22 c0 -5 -4 -10 -10 -10
-5 0 -10 5 -10 10 0 6 5 10 10 10 6 0 10 -4 10 -10z m80 0 c0 -5 -7 -10 -16
-10 -8 0 -12 5 -9 10 3 6 10 10 16 10 5 0 9 -4 9 -10z m270 -20 c0 -13 -7 -20
-20 -20 -14 0 -18 5 -13 17 6 16 5 16 -17 0 -14 -9 -34 -17 -45 -17 -17 0 -15
3 10 20 40 27 85 27 85 0z m-630 -15 c0 -14 -6 -25 -14 -25 -9 0 -12 8 -8 25
2 14 8 25 13 25 5 0 9 -11 9 -25z m4855 5 c-10 -11 -22 -17 -26 -14 -5 3 -9 0
-9 -7 0 -7 -3 -10 -6 -7 -11 12 17 48 38 48 20 0 20 -1 3 -20z m-4815 -26 c0
-14 -4 -22 -10 -19 -5 3 -10 17 -10 31 0 14 4 22 10 19 6 -3 10 -17 10 -31z
m426 21 c10 -8 14 -15 7 -15 -7 0 -10 -7 -6 -17 5 -12 3 -14 -8 -8 -8 4 -11 5
-7 0 4 -4 3 -14 -3 -21 -7 -8 -6 -14 2 -20 8 -5 9 -3 4 6 -5 8 -3 11 6 8 21
-7 18 -53 -3 -52 -10 1 -18 -2 -18 -7 0 -5 9 -9 20 -9 13 0 18 -5 13 -15 -5
-14 -8 -14 -28 -1 -18 12 -25 13 -28 3 -4 -9 -8 -9 -15 2 -5 7 -14 11 -20 7
-6 -3 -14 -2 -17 4 -8 13 -44 3 -70 -20 -38 -34 -65 -43 -83 -28 -11 9 -14 10
-8 1 5 -9 1 -13 -11 -13 -11 0 -25 6 -32 13 -10 10 -11 9 -6 -5 4 -9 19 -19
33 -21 18 -3 14 -4 -10 -4 -40 1 -44 9 -29 51 7 17 7 26 -1 28 -7 3 -9 12 -5
22 5 12 16 17 34 15 16 -2 33 -1 38 2 6 3 22 5 38 4 16 -1 27 4 27 13 0 7 -4
10 -10 7 -5 -3 -10 0 -10 7 0 10 -3 9 -10 -2 -7 -11 -11 -9 -19 13 -15 38 -13
46 4 23 8 -11 15 -15 15 -9 0 6 11 8 26 5 19 -3 22 -7 12 -13 -9 -6 -7 -9 10
-9 12 0 22 5 22 10 0 6 5 10 10 10 6 0 10 -7 10 -15 0 -21 20 -19 20 3 1 22
28 58 37 48 4 -4 1 -11 -7 -16 -8 -5 -12 -12 -9 -15 4 -3 17 6 30 20 28 29 29
29 55 10z m-146 -5 c0 -5 -4 -10 -10 -10 -5 0 -10 5 -10 10 0 6 5 10 10 10 6
0 10 -4 10 -10z m-170 -30 c0 -24 -15 -27 -24 -4 -3 8 -2 12 4 9 6 -3 10 -1
10 4 0 6 2 11 5 11 3 0 5 -9 5 -20z m60 10 c0 -5 -2 -10 -4 -10 -3 0 -8 5 -11
10 -3 6 -1 10 4 10 6 0 11 -4 11 -10z m-245 -16 c20 -15 20 -15 0 -11 -11 1
-29 8 -40 15 l-20 11 20 0 c11 0 29 -6 40 -15z m4245 -29 c-6 -8 -9 -19 -5
-25 3 -5 1 -10 -4 -10 -15 0 -14 37 2 43 19 8 20 8 7 -8z m283 -2 c-3 -10 -13
-26 -21 -35 -8 -10 -12 -25 -8 -34 6 -16 20 -12 22 7 1 5 2 13 3 18 0 5 8 12
17 15 8 3 12 2 9 -3 -3 -5 -1 -12 3 -15 7 -4 8 -31 3 -56 -1 -3 -8 4 -16 14
-14 18 -15 18 -25 -10 -9 -24 -8 -31 6 -41 14 -10 15 -16 5 -35 -11 -22 -11
-22 -7 -2 3 19 0 21 -23 19 -14 -2 -34 -1 -44 1 -16 5 -16 7 4 32 11 15 25 27
30 27 5 0 8 5 7 10 -1 6 -8 9 -15 7 -19 -4 -16 6 8 31 11 12 25 32 30 45 10
26 21 30 12 5z m-4943 -25 c0 -6 -6 -5 -15 2 -8 7 -15 14 -15 16 0 2 7 1 15
-2 8 -4 15 -11 15 -16z m-115 -7 c3 -5 1 -12 -5 -16 -5 -3 -10 1 -10 9 0 18 6
21 15 7z m175 -3 c0 -5 -9 -8 -19 -8 -11 0 -22 3 -24 8 -3 4 6 7 19 7 13 0 24
-3 24 -7z m5270 -38 c0 -5 -7 -7 -15 -4 -8 4 -15 8 -15 10 0 2 7 4 15 4 8 0
15 -4 15 -10z m-4520 -28 c0 -11 -7 -18 -20 -18 -23 0 -25 7 -8 24 17 17 28
15 28 -6z m4590 -2 c0 -18 -3 -19 -20 -8 -18 12 -19 13 -2 20 9 3 18 7 20 7 1
1 2 -8 2 -19z m-415 -13 c5 5 3 0 -4 -9 -15 -20 -20 -21 -39 -10 -7 5 -10 16
-6 26 6 15 8 15 24 1 9 -8 21 -12 25 -8z m332 17 c-3 -3 -12 -4 -19 -1 -8 3
-5 6 6 6 11 1 17 -2 13 -5z m-4417 -35 c0 -5 -4 -9 -10 -9 -5 0 -10 7 -10 16
0 8 5 12 10 9 6 -3 10 -10 10 -16z m4619 -32 c0 -21 -1 -21 -9 -2 -5 12 -9 14
-9 6 -1 -8 -3 -12 -6 -9 -9 8 6 38 16 32 5 -3 9 -15 8 -27z m-4697 9 c13 -19
9 -26 -14 -26 -25 0 -88 21 -88 30 0 10 95 7 102 -4z m4715 -53 c-2 -16 -4 -5
-4 22 0 28 2 40 4 28 2 -13 2 -35 0 -50z m-4859 29 c4 -23 -11 -27 -56 -16
-28 8 -24 26 9 35 34 10 44 6 47 -19z m187 18 c3 -5 -1 -10 -9 -10 -9 0 -16 5
-16 10 0 6 4 10 9 10 6 0 13 -4 16 -10z m4191 -11 c3 -6 15 -8 26 -6 15 4 17
3 8 -8 -8 -9 -8 -15 0 -20 5 -3 10 -1 10 5 0 6 5 8 10 5 13 -8 -3 -40 -24 -48
-24 -10 -58 4 -51 21 3 8 0 19 -7 24 -10 6 -10 8 1 8 11 0 11 3 1 15 -10 12
-10 15 3 15 9 0 19 -5 23 -11z m-79 -28 c0 -11 -5 -18 -9 -15 -4 3 -5 11 -1
19 7 21 12 19 10 -4z m-4142 -1 c23 -10 22 -10 -22 -16 -31 -5 -42 4 -26 19 8
9 23 8 48 -3z m4684 -37 c1 -7 -3 -13 -9 -13 -5 0 -10 15 -9 33 0 27 2 29 9
12 5 -11 9 -26 9 -32z m-4604 16 c5 -5 -4 -9 -23 -9 -22 0 -32 5 -32 16 0 11
6 14 23 9 12 -4 26 -11 32 -16z m4515 1 c0 -5 -2 -10 -4 -10 -3 0 -8 5 -11 10
-3 6 -1 10 4 10 6 0 11 -4 11 -10z m-244 -20 c0 -12 -4 -16 -9 -11 -5 5 -6 14
-3 20 10 15 12 14 12 -9z m-4556 0 c0 -5 -7 -10 -15 -10 -8 0 -15 5 -15 10 0
6 7 10 15 10 8 0 15 -4 15 -10z m210 0 c0 -5 -7 -7 -15 -4 -8 4 -15 8 -15 10
0 2 7 4 15 4 8 0 15 -4 15 -10z m-353 -26 c-3 -3 -12 -4 -19 -1 -8 3 -5 6 6 6
11 1 17 -2 13 -5z m4628 -8 c12 -12 8 -15 -28 -18 -38 -4 -56 4 -57 25 0 13
71 7 85 -7z m525 -1 c0 -18 -31 -20 -48 -3 -15 15 -21 8 -24 -25 -3 -29 -18
-26 -18 4 0 24 -7 24 -34 2 -15 -13 -14 -10 3 10 20 22 33 27 73 27 36 0 48
-4 48 -15z m-4660 1 c0 -2 -8 -10 -17 -17 -16 -13 -17 -12 -4 4 13 16 21 21
21 13z m107 -2 c-3 -3 -12 -4 -19 -1 -8 3 -5 6 6 6 11 1 17 -2 13 -5z m-600
-10 c-3 -3 -12 -4 -19 -1 -8 3 -5 6 6 6 11 1 17 -2 13 -5z m310 0 c-3 -3 -12
-4 -19 -1 -8 3 -5 6 6 6 11 1 17 -2 13 -5z m4813 -36 c0 -6 -6 -5 -15 2 -8 7
-15 14 -15 16 0 2 7 1 15 -2 8 -4 15 -11 15 -16z m-4733 6 c-3 -3 -12 -4 -19
-1 -8 3 -5 6 6 6 11 1 17 -2 13 -5z m4253 -10 c0 -8 -4 -12 -10 -9 -5 3 -10 2
-10 -4 0 -5 5 -13 10 -16 20 -13 9 -23 -29 -27 -30 -2 -37 0 -30 8 5 7 7 24 3
38 -6 24 -4 26 30 26 26 0 36 -4 36 -16z m-4662 -1 c-10 -2 -26 -2 -35 0 -10
3 -2 5 17 5 19 0 27 -2 18 -5z m5012 2 c0 -2 -19 -17 -43 -34 -32 -22 -47 -27
-60 -19 -10 5 -25 8 -35 7 -9 -1 -33 0 -52 1 -32 2 -33 3 -10 9 14 4 51 6 82
3 47 -4 62 -1 85 16 30 23 33 24 33 17z m170 -31 c0 -8 -4 -12 -10 -9 -5 3
-10 10 -10 16 0 5 5 9 10 9 6 0 10 -7 10 -16z m-5179 -38 c7 4 9 3 6 -3 -4 -6
0 -13 8 -17 27 -10 15 -26 -20 -26 -34 0 -46 12 -25 25 8 5 7 12 -2 23 -12 15
-11 16 4 4 9 -8 23 -10 29 -6z m359 10 c0 -3 -4 -8 -10 -11 -5 -3 -10 -1 -10
4 0 6 5 11 10 11 6 0 10 -2 10 -4z m-1037 -21 c-3 -9 -8 -14 -10 -11 -3 3 -2
9 2 15 9 16 15 13 8 -4z m626 -17 c-1 -18 1 -43 5 -55 9 -27 -5 -30 -25 -7
-10 12 -24 15 -61 10 -38 -5 -50 -4 -54 9 -9 22 -30 18 -65 -13 -27 -25 -30
-31 -24 -65 7 -38 34 -53 36 -19 0 14 2 14 9 -3 8 -19 11 -18 14 4 3 23 46 48
76 43 42 -6 38 -23 -5 -20 -38 2 -67 -24 -57 -51 3 -9 1 -12 -6 -7 -15 9 -262
9 -300 0 -19 -5 -24 -3 -17 4 6 6 29 12 52 14 39 3 50 14 28 30 -6 4 -2 8 8 8
10 0 20 7 24 16 7 18 -33 64 -56 64 -21 -1 -51 -24 -51 -39 0 -7 -9 -9 -25 -5
-14 3 -31 1 -39 -5 -10 -8 -16 -9 -21 -1 -3 5 -18 10 -32 10 -22 0 -24 3 -18
27 4 16 7 29 8 29 2 1 484 13 555 14 17 0 32 5 32 10 0 6 -39 11 -92 12 l-93
2 95 6 c52 3 96 7 98 8 1 1 2 -13 1 -30z m4961 28 c0 -3 -15 -14 -32 -26 l-33
-22 30 26 c31 27 35 29 35 22z m-250 -13 c0 -11 -71 -56 -77 -49 -3 2 8 11 24
20 15 8 24 15 20 16 -5 0 -5 5 -2 10 7 12 35 14 35 3z m-4386 -45 c-3 -5 -11
-8 -17 -8 -8 0 -8 3 2 9 9 6 10 11 2 15 -6 4 -11 12 -11 19 0 6 6 2 14 -8 8
-11 12 -23 10 -27z m4266 34 c0 -14 -11 -21 -26 -15 -8 3 -11 9 -8 14 7 11 34
12 34 1z m-4080 -28 c0 -2 -7 -4 -15 -4 -8 0 -15 4 -15 10 0 5 7 7 15 4 8 -4
15 -8 15 -10z m4200 -4 c0 -5 -10 -10 -22 -10 -19 0 -20 2 -8 10 19 13 30 13
30 0z m172 -2 c-6 -7 -25 -22 -44 -32 -39 -23 -32 -13 14 20 38 26 45 29 30
12z m-4840 -5 c-6 -2 -9 -10 -5 -16 4 -7 -1 -6 -10 2 -22 18 -21 21 6 20 12 0
16 -3 9 -6z m362 -2 c4 -5 -3 -7 -14 -4 -23 6 -26 13 -6 13 8 0 17 -4 20 -9z
m4064 -5 c-10 -7 -18 -19 -18 -27 0 -11 -2 -11 -10 1 -12 19 -13 33 -1 25 5
-3 12 -1 16 5 3 5 12 10 18 10 7 0 4 -7 -5 -14z m87 -6 c3 -5 1 -10 -4 -10 -6
0 -11 5 -11 10 0 6 2 10 4 10 3 0 8 -4 11 -10z m-4470 -10 c8 -13 -5 -13 -25
0 -13 8 -13 10 2 10 9 0 20 -4 23 -10z m-130 -18 c-3 -4 -26 -6 -50 -7 -43 0
-49 9 -10 17 25 5 68 -3 60 -10z m551 -1 c0 -15 -3 -17 -13 -9 -7 6 -10 14 -7
19 9 15 20 10 20 -10z m-656 -26 c0 -5 -5 -3 -10 5 -5 8 -10 20 -10 25 0 6 5
3 10 -5 5 -8 10 -19 10 -25z m4553 21 c3 -8 0 -17 -8 -20 -10 -3 -12 0 -8 11
5 12 3 14 -7 8 -9 -5 -11 -4 -6 3 10 16 23 15 29 -2z m297 3 c0 -14 -26 -16
-37 -4 -9 10 -7 13 13 11 13 0 24 -4 24 -7z m357 5 c-3 -3 -12 -4 -19 -1 -8 3
-5 6 6 6 11 1 17 -2 13 -5z m-267 -19 c-7 -9 -15 -13 -19 -10 -3 3 1 10 9 15
21 14 24 12 10 -5z m180 -4 c0 -12 -39 -25 -47 -17 -4 3 2 6 13 6 16 0 17 2 4
10 -12 8 -11 10 8 10 12 0 22 -4 22 -9z m-4900 -12 c0 -9 -37 -18 -45 -11 -3
4 -22 5 -41 3 -18 -1 -34 2 -34 8 0 6 25 9 60 9 33 -1 60 -5 60 -9z m690 7 c0
-2 -11 -6 -25 -8 -13 -3 -22 -1 -19 3 5 9 44 13 44 5z m-450 -16 c0 -5 -2 -10
-4 -10 -3 0 -8 5 -11 10 -3 6 -1 10 4 10 6 0 11 -4 11 -10z m108 3 c-10 -2
-28 -2 -40 0 -13 2 -5 4 17 4 22 1 32 -1 23 -4z m4502 -43 c-14 -8 -40 11 -40
28 0 19 25 19 39 -1 11 -16 11 -21 1 -27z m-4242 26 c3 -3 -1 -14 -9 -23 -12
-16 -12 -17 2 -6 16 13 29 8 29 -9 0 -5 -4 -7 -10 -3 -5 3 -17 -6 -26 -20 -15
-24 -44 -35 -44 -17 0 5 -15 9 -32 10 -57 1 -67 5 -65 23 1 10 5 15 9 13 4 -3
8 -1 8 5 0 5 8 17 17 26 13 14 28 16 66 11 27 -3 52 -8 55 -10z m-513 -14 c-3
-3 -11 0 -18 7 -9 10 -8 11 6 5 10 -3 15 -9 12 -12z m4450 -2 c-3 -5 -12 -10
-18 -10 -7 0 -6 4 3 10 19 12 23 12 15 0z m-4405 -10 c8 -5 11 -10 5 -10 -5 0
-17 5 -25 10 -8 5 -10 10 -5 10 6 0 17 -5 25 -10z m604 -16 c15 -14 25 -28 22
-32 -4 -3 -11 0 -16 8 -6 8 -10 11 -10 5 0 -5 -5 -3 -11 5 -8 11 -12 12 -16 3
-2 -7 -11 -13 -19 -13 -11 0 -11 5 -2 25 14 31 16 31 52 -1z m4023 10 c-3 -3
-12 -4 -19 -1 -8 3 -5 6 6 6 11 1 17 -2 13 -5z m-4152 -34 c3 -5 1 -10 -4 -10
-6 0 -11 5 -11 10 0 6 2 10 4 10 3 0 8 -4 11 -10z m-284 -17 c12 -16 12 -17
-2 -6 -9 7 -19 10 -22 6 -4 -3 -7 -1 -7 5 0 17 16 15 31 -5z m539 -63 c0 -4
-13 -6 -29 -6 -17 0 -28 3 -25 8 3 4 -2 8 -10 8 -19 0 -20 6 -4 24 10 11 18
10 40 -7 16 -12 28 -24 28 -27z m3407 44 c-3 -3 -12 -4 -19 -1 -8 3 -5 6 6 6
11 1 17 -2 13 -5z m-3797 -19 c0 -17 -5 -18 -28 -7 -9 5 -28 6 -42 1 -18 -5
-20 -7 -7 -8 16 -1 17 -3 4 -16 -8 -7 -26 -17 -41 -21 -14 -3 -30 -11 -34 -18
-4 -6 -32 -23 -62 -39 l-55 -27 55 3 c30 2 44 2 30 -1 -21 -4 -22 -5 -7 -11 9
-3 -14 -6 -53 -5 -39 1 -73 4 -76 7 -3 3 -19 3 -35 0 -16 -2 -29 -2 -29 1 0 8
237 126 254 126 7 0 19 7 26 15 8 9 30 15 56 15 32 0 44 -4 44 -15z m3287 -9
c-2 -6 -11 -11 -20 -10 -85 4 -82 3 -63 17 21 15 89 10 83 -7z m883 12 c0 -6
-3 -8 -7 -5 -3 4 -12 2 -19 -4 -16 -13 -48 -4 -39 11 9 14 65 13 65 -2z m-96
-16 c-16 -15 -28 -17 -69 -12 l-50 7 50 2 c28 1 57 6 65 11 24 15 26 12 4 -8z
m483 12 c-3 -3 -12 -4 -19 -1 -8 3 -5 6 6 6 11 1 17 -2 13 -5z m-4492 -14 c3
-5 2 -10 -4 -10 -5 0 -13 5 -16 10 -3 6 -2 10 4 10 5 0 13 -4 16 -10z m3275
-5 c-7 -8 -17 -15 -22 -15 -11 0 14 29 26 30 5 0 3 -7 -4 -15z m856 -15 c13 0
62 -20 107 -45 46 -25 95 -45 110 -45 14 0 29 -5 33 -12 5 -8 -2 -9 -25 -5
-22 5 -37 2 -47 -7 -12 -13 -17 -12 -39 8 -13 12 -44 31 -67 42 -24 10 -46 22
-49 27 -3 5 -10 9 -15 10 -15 2 -44 31 -43 42 0 5 3 4 6 -2 2 -7 16 -13 29
-13z m-471 0 c17 -7 15 -9 -12 -9 -18 -1 -33 4 -33 9 0 12 17 12 45 0z m45
-20 c0 -5 -10 -10 -22 -9 -22 0 -22 1 -3 9 11 5 21 9 23 9 1 1 2 -3 2 -9z m37
4 c-3 -3 -12 -4 -19 -1 -8 3 -5 6 6 6 11 1 17 -2 13 -5z m56 -1 c-7 -2 -21 -2
-30 0 -10 3 -4 5 12 5 17 0 24 -2 18 -5z m134 1 c-3 -3 -12 -4 -19 -1 -8 3 -5
6 6 6 11 1 17 -2 13 -5z m108 -4 c-8 -13 -45 -13 -65 0 -11 7 -3 10 28 10 26
0 41 -4 37 -10z m-152 -7 c-7 -2 -19 -2 -25 0 -7 3 -2 5 12 5 14 0 19 -2 13
-5z m-3925 -17 c3 -3 -13 -6 -36 -6 -23 0 -42 4 -42 9 0 9 68 6 78 -3z m3815
7 c-7 -2 -19 -2 -25 0 -7 3 -2 5 12 5 14 0 19 -2 13 -5z m-136 -9 c-3 -3 -12
-4 -19 -1 -8 3 -5 6 6 6 11 1 17 -2 13 -5z m40 0 c-3 -3 -12 -4 -19 -1 -8 3
-5 6 6 6 11 1 17 -2 13 -5z m153 -4 c0 -5 -5 -10 -11 -10 -5 0 -7 5 -4 10 3 6
8 10 11 10 2 0 4 -4 4 -10z m95 1 l40 -9 -35 0 c-19 0 -48 4 -65 8 -27 7 -28
8 -5 8 14 1 43 -3 65 -7z m170 -1 c4 -7 -8 -8 -37 -4 -57 9 -61 14 -10 14 22
0 44 -5 47 -10z m-4088 -6 c-3 -3 -12 -4 -19 -1 -8 3 -5 6 6 6 11 1 17 -2 13
-5z m3986 -21 c-7 -2 -21 -2 -30 0 -10 3 -4 5 12 5 17 0 24 -2 18 -5z m-4000
-10 c-7 -2 -19 -2 -25 0 -7 3 -2 5 12 5 14 0 19 -2 13 -5z m3850 0 c-7 -2 -21
-2 -30 0 -10 3 -4 5 12 5 17 0 24 -2 18 -5z m275 0 c-10 -2 -28 -2 -40 0 -13
2 -5 4 17 4 22 1 32 -1 23 -4z m-4275 -10 c-7 -2 -19 -2 -25 0 -7 3 -2 5 12 5
14 0 19 -2 13 -5z m64 1 c-3 -3 -12 -4 -19 -1 -8 3 -5 6 6 6 11 1 17 -2 13 -5z
m-19 -21 c-10 -2 -28 -2 -40 0 -13 2 -5 4 17 4 22 1 32 -1 23 -4z m3950 0
c-15 -2 -42 -2 -60 0 -18 2 -6 4 27 4 33 0 48 -2 33 -4z m219 1 c-3 -3 -12 -4
-19 -1 -8 3 -5 6 6 6 11 1 17 -2 13 -5z m141 -1 c-15 -2 -42 -2 -60 0 -18 2
-6 4 27 4 33 0 48 -2 33 -4z m-4588 -10 c0 -10 -60 -58 -74 -59 -6 -1 -18 -2
-26 -3 -13 -1 -13 -2 0 -12 12 -8 11 -9 -6 -5 -14 4 -29 -3 -50 -23 -32 -31
-101 -71 -123 -71 -35 0 6 -16 57 -21 l57 -7 -70 1 c-71 1 -100 -9 -139 -44
-11 -11 -25 -20 -30 -20 -6 -1 3 -5 19 -9 29 -7 28 -8 -11 -9 -23 0 -58 -8
-77 -16 -32 -13 -36 -13 -31 0 9 23 -13 18 -30 -7 -9 -12 -19 -18 -23 -14 -4
4 -1 11 6 15 7 5 10 14 7 20 -10 16 -26 14 -26 -4 0 -20 -31 -34 -71 -32 -33
3 -126 33 -142 47 -14 12 16 50 38 49 17 -1 17 -2 3 -6 -10 -2 -18 -10 -18
-18 0 -15 12 -21 96 -44 61 -17 61 -17 74 3 12 18 11 19 -2 9 -12 -11 -18 -9
-32 6 -22 24 -14 28 51 30 34 0 66 9 95 25 24 13 54 27 68 31 14 4 55 27 92
52 37 24 72 41 78 38 6 -4 9 -2 8 4 -2 6 26 30 62 55 56 39 72 45 118 45 28 1
52 -2 52 -6z m393 0 c-7 -2 -21 -2 -30 0 -10 3 -4 5 12 5 17 0 24 -2 18 -5z
m-180 -20 c-7 -2 -19 -2 -25 0 -7 3 -2 5 12 5 14 0 19 -2 13 -5z m4030 0 c-13
-2 -35 -2 -50 0 -16 2 -5 4 22 4 28 0 40 -2 28 -4z m-5088 -13 c3 -5 1 -10 -4
-10 -6 0 -11 5 -11 10 0 6 2 10 4 10 3 0 8 -4 11 -10z m52 4 c-3 -3 -12 -4
-19 -1 -8 3 -5 6 6 6 11 1 17 -2 13 -5z m846 -1 c-7 -2 -19 -2 -25 0 -7 3 -2
5 12 5 14 0 19 -2 13 -5z m295 0 c-10 -2 -28 -2 -40 0 -13 2 -5 4 17 4 22 1
32 -1 23 -4z m4010 0 c-10 -2 -26 -2 -35 0 -10 3 -2 5 17 5 19 0 27 -2 18 -5z
m185 0 c-7 -2 -19 -2 -25 0 -7 3 -2 5 12 5 14 0 19 -2 13 -5z m44 1 c-3 -3
-12 -4 -19 -1 -8 3 -5 6 6 6 11 1 17 -2 13 -5z m76 -1 c-7 -2 -19 -2 -25 0 -7
3 -2 5 12 5 14 0 19 -2 13 -5z m-4535 -30 c-21 -2 -57 -2 -80 0 -24 2 -7 4 37
4 44 0 63 -2 43 -4z m4120 0 c-21 -2 -57 -2 -80 0 -24 2 -7 4 37 4 44 0 63 -2
43 -4z m-3931 -9 c-3 -3 -12 -4 -19 -1 -8 3 -5 6 6 6 11 1 17 -2 13 -5z m4270
0 c-3 -3 -12 -4 -19 -1 -8 3 -5 6 6 6 11 1 17 -2 13 -5z m136 -1 c-7 -2 -21
-2 -30 0 -10 3 -4 5 12 5 17 0 24 -2 18 -5z m-4535 -20 c-21 -2 -57 -2 -80 0
-24 2 -7 4 37 4 44 0 63 -2 43 -4z m221 3 c-2 -2 -35 -6 -74 -9 -45 -3 -58 -3
-35 2 37 9 116 14 109 7z m3904 -3 c-18 -2 -48 -2 -65 0 -18 2 -4 4 32 4 36 0
50 -2 33 -4z m110 0 c-13 -2 -33 -2 -45 0 -13 2 -3 4 22 4 25 0 35 -2 23 -4z
m180 0 c-13 -2 -35 -2 -50 0 -16 2 -5 4 22 4 28 0 40 -2 28 -4z m-4600 -10
c-13 -2 -33 -2 -45 0 -13 2 -3 4 22 4 25 0 35 -2 23 -4z m4760 0 c-7 -2 -19
-2 -25 0 -7 3 -2 5 12 5 14 0 19 -2 13 -5z m-4763 -43 c-30 -5 -75 -8 -100 -7
-45 0 -45 0 10 7 30 4 75 7 100 7 44 0 44 0 -10 -7z m4343 3 c-13 -2 -33 -2
-45 0 -13 2 -3 4 22 4 25 0 35 -2 23 -4z m160 -10 c-7 -2 -19 -2 -25 0 -7 3
-2 5 12 5 14 0 19 -2 13 -5z m175 -10 c-10 -2 -26 -2 -35 0 -10 3 -2 5 17 5
19 0 27 -2 18 -5z m149 1 c-3 -3 -12 -4 -19 -1 -8 3 -5 6 6 6 11 1 17 -2 13
-5z m-4739 -21 c-10 -2 -28 -2 -40 0 -13 2 -5 4 17 4 22 1 32 -1 23 -4z m4375
-5 c-27 -6 -49 -6 -60 0 -12 7 0 10 43 10 l59 0 -42 -10z m-4555 -5 c-10 -2
-26 -2 -35 0 -10 3 -2 5 17 5 19 0 27 -2 18 -5z m310 0 c-10 -2 -28 -2 -40 0
-13 2 -5 4 17 4 22 1 32 -1 23 -4z m170 0 c-10 -2 -28 -2 -40 0 -13 2 -5 4 17
4 22 1 32 -1 23 -4z m4220 0 c-10 -2 -28 -2 -40 0 -13 2 -5 4 17 4 22 1 32 -1
23 -4z m212 -2 c0 -5 10 -12 23 -14 12 -2 0 -4 -28 -5 -38 0 -44 2 -25 8 24 7
23 7 -10 12 l-35 5 38 1 c20 1 37 -2 37 -7z m37 3 c-3 -3 -12 -4 -19 -1 -8 3
-5 6 6 6 11 1 17 -2 13 -5z m-4850 -20 c-3 -3 -12 -4 -19 -1 -8 3 -5 6 6 6 11
1 17 -2 13 -5z m211 -1 c-15 -2 -42 -2 -60 0 -18 2 -6 4 27 4 33 0 48 -2 33
-4z m125 0 c-7 -2 -19 -2 -25 0 -7 3 -2 5 12 5 14 0 19 -2 13 -5z m44 1 c-3
-3 -12 -4 -19 -1 -8 3 -5 6 6 6 11 1 17 -2 13 -5z m16 -34 c-5 -34 -3 -40 13
-41 14 0 15 -2 4 -6 -8 -3 -18 -11 -22 -17 -8 -12 -129 -16 -122 -4 2 3 -4 9
-13 11 -11 3 -7 5 10 6 25 1 116 61 125 84 8 17 10 4 5 -33z m4280 33 c-7 -2
-19 -2 -25 0 -7 3 -2 5 12 5 14 0 19 -2 13 -5z m-5229 -12 c4 -5 -3 -7 -14 -4
-23 6 -26 13 -6 13 8 0 17 -4 20 -9z m726 -19 c0 -4 -18 -6 -40 -4 -22 2 -40
6 -40 8 0 2 18 4 40 4 22 0 40 -3 40 -8z m4578 1 c-15 -2 -42 -2 -60 0 -18 2
-6 4 27 4 33 0 48 -2 33 -4z m-4805 -10 c-7 -2 -21 -2 -30 0 -10 3 -4 5 12 5
17 0 24 -2 18 -5z m264 1 c-3 -3 -12 -4 -19 -1 -8 3 -5 6 6 6 11 1 17 -2 13
-5z m71 -1 c-10 -2 -28 -2 -40 0 -13 2 -5 4 17 4 22 1 32 -1 23 -4z m4275 0
c-7 -2 -19 -2 -25 0 -7 3 -2 5 12 5 14 0 19 -2 13 -5z m325 0 c-10 -2 -28 -2
-40 0 -13 2 -5 4 17 4 22 1 32 -1 23 -4z m-5195 -10 c-7 -2 -19 -2 -25 0 -7 3
-2 5 12 5 14 0 19 -2 13 -5z m155 0 c-15 -2 -42 -2 -60 0 -18 2 -6 4 27 4 33
0 48 -2 33 -4z m4892 -33 c41 -4 62 -8 46 -9 -28 -1 -29 -2 -10 -16 10 -8 35
-15 54 -16 l35 -2 -33 -4 c-27 -4 -33 -8 -30 -26 3 -20 10 -22 98 -28 l95 -5
-89 -2 c-63 -1 -92 -6 -100 -16 -6 -8 -33 -16 -60 -18 -47 -3 -50 -1 -57 25
-9 33 -28 59 -39 52 -4 -2 -3 -23 3 -44 12 -46 11 -48 -24 -54 -33 -6 -36 -3
-79 60 -34 51 -36 52 -90 56 l-55 3 62 2 c56 2 62 4 65 25 3 25 50 38 103 29
17 -2 64 -8 105 -12z m-4865 -1 c20 -5 9 -6 -30 -2 -33 3 -62 7 -64 9 -8 7 63
2 94 -7z m4638 4 c-7 -2 -21 -2 -30 0 -10 3 -4 5 12 5 17 0 24 -2 18 -5z
m-4566 -9 c-3 -3 -12 -4 -19 -1 -8 3 -5 6 6 6 11 1 17 -2 13 -5z m101 -1 c-10
-2 -28 -2 -40 0 -13 2 -5 4 17 4 22 1 32 -1 23 -4z m135 0 c-13 -2 -33 -2 -45
0 -13 2 -3 4 22 4 25 0 35 -2 23 -4z m3837 -3 c23 -14 8 -20 -36 -13 -36 6
-37 7 -14 14 35 10 33 10 50 -1z m913 3 c-7 -2 -19 -2 -25 0 -7 3 -2 5 12 5
14 0 19 -2 13 -5z m-4768 -20 c-27 -3 -55 -9 -62 -15 -8 -6 -30 -8 -53 -4 -25
4 -40 2 -40 -4 0 -5 5 -10 12 -10 21 0 -1 -12 -34 -19 -18 -4 -33 -11 -33 -16
0 -6 -8 -21 -18 -35 -17 -25 -18 -25 -170 -24 -145 2 -150 1 -112 -13 22 -8
85 -19 140 -23 l100 -9 -108 4 c-98 3 -114 6 -173 35 -36 18 -63 34 -60 37 3
3 11 1 18 -5 11 -9 199 -17 311 -13 45 1 54 30 10 32 l-28 2 28 4 c16 3 37 13
48 24 10 10 27 20 37 21 9 0 -3 4 -28 8 l-45 7 53 1 c28 1 52 7 52 12 0 6 40
9 103 8 56 -1 80 -3 52 -5z m-875 -22 c0 -5 -24 -11 -54 -13 -43 -2 -52 0 -44
10 12 14 98 17 98 3z m71 -17 c9 -12 6 -12 -20 -3 -17 6 -33 14 -36 19 -8 13
44 -2 56 -16z m499 17 c25 -4 -31 -5 -125 -3 -93 2 -174 5 -180 7 -20 7 261 3
305 -4z m-323 -7 c-3 -3 -12 -4 -19 -1 -8 3 -5 6 6 6 11 1 17 -2 13 -5z m687
-19 c-29 -13 -79 -26 -115 -29 l-64 -5 79 17 c44 9 81 23 84 30 2 6 18 12 35
12 31 -1 30 -2 -19 -25z m134 18 c-10 -2 -26 -2 -35 0 -10 3 -2 5 17 5 19 0
27 -2 18 -5z m3412 -3 c0 -5 -6 -10 -12 -11 -9 0 -9 -2 1 -6 10 -4 8 -9 -10
-19 -13 -7 -18 -13 -11 -14 6 0 12 -3 12 -8 0 -4 -55 -4 -122 1 -133 9 -476 1
-545 -12 -24 -5 -43 -5 -43 -1 0 13 295 56 505 73 96 8 225 6 225 -3z m260 1
c0 -18 -23 -61 -32 -61 -5 0 -7 -4 -4 -9 3 -5 0 -11 -7 -14 -13 -5 -136 8
-143 16 -2 2 0 16 5 30 7 18 7 28 -1 33 -7 4 -8 3 -4 -4 4 -7 2 -12 -3 -12 -6
0 -11 4 -11 9 0 5 -10 11 -22 13 -13 2 32 5 100 6 75 2 122 -1 122 -7z m918 2
c-10 -2 -28 -2 -40 0 -13 2 -5 4 17 4 22 1 32 -1 23 -4z m-4608 -22 c0 -5 -9
-12 -19 -16 -11 -3 -23 -15 -26 -26 -4 -10 -10 -17 -14 -15 -15 9 -39 -30 -29
-48 7 -12 5 -16 -6 -16 -8 0 -19 -7 -24 -17 -7 -12 -17 -14 -41 -10 -19 4 -31
2 -31 -4 0 -6 -9 -7 -22 -3 -13 4 -38 8 -57 8 -19 1 -36 7 -39 15 -3 10 3 11
29 5 43 -11 133 -8 158 6 19 10 19 50 -1 50 -5 0 -7 4 -4 9 4 5 0 11 -6 14 -7
2 0 8 15 12 22 6 27 12 24 26 -5 17 1 19 44 19 27 0 49 -4 49 -9z m3466 -6
c-8 -8 -17 -15 -20 -15 -3 0 -3 7 0 15 4 8 13 15 21 15 12 0 12 -2 -1 -15z
m-4311 -5 c4 -6 -1 -7 -11 -3 -12 4 -15 3 -10 -5 4 -7 2 -12 -3 -12 -12 0 -14
13 -4 23 9 10 21 9 28 -3z m-245 -9 c0 -5 -17 -19 -37 -31 -24 -14 -32 -16
-24 -6 8 9 10 16 5 17 -5 0 5 7 21 14 37 17 35 17 35 6z m498 4 c-7 -7 -209
-8 -216 -1 -3 3 46 6 108 6 62 0 111 -2 108 -5z m-213 -23 c-3 -3 -11 0 -18 7
-9 10 -8 11 6 5 10 -3 15 -9 12 -12z m298 11 c-13 -2 -35 -2 -50 0 -16 2 -5 4
22 4 28 0 40 -2 28 -4z m198 -3 c22 0 -3 -18 -33 -24 -26 -5 -30 -9 -18 -16
17 -11 9 -13 -14 -4 -9 3 -16 10 -16 16 0 5 4 6 10 3 5 -3 15 3 22 15 7 11 19
18 26 15 8 -3 18 -5 23 -5z m366 -12 c-3 -8 -6 -5 -6 6 -1 11 2 17 5 13 3 -3
4 -12 1 -19z m-1149 -31 c0 -13 -10 -29 -22 -37 l-21 -13 20 24 20 23 -40 -22
-40 -22 39 35 c22 19 40 35 41 35 2 0 3 -11 3 -23z m290 6 c-10 -2 -28 -2 -40
0 -13 2 -5 4 17 4 22 1 32 -1 23 -4z m4092 -2 c0 -5 7 -12 16 -15 8 -3 12 -2
9 4 -4 6 9 10 29 10 32 0 36 -3 36 -25 0 -23 -3 -25 -50 -24 -28 1 -52 5 -55
8 -2 4 -28 6 -57 5 -179 -7 -792 -16 -788 -11 5 5 339 44 435 50 116 8 425 6
425 -2z m1207 3 c-3 -3 -12 -4 -19 -1 -8 3 -5 6 6 6 11 1 17 -2 13 -5z m-5370
-10 c-3 -3 -12 -4 -19 -1 -8 3 -5 6 6 6 11 1 17 -2 13 -5z m1101 -11 c-2 -9
-8 -18 -15 -20 -7 -3 -9 3 -6 16 6 25 26 28 21 4z m-1142 -40 c-8 -8 -12 -3
-21 27 l-7 25 17 -23 c9 -13 14 -26 11 -29z m979 27 c-3 -4 -13 -10 -24 -13
-14 -3 -17 0 -14 13 3 12 11 16 24 13 10 -3 17 -9 14 -13z m3515 11 c14 -3 26
-11 27 -18 2 -8 -4 -10 -14 -6 -9 4 -14 2 -11 -3 4 -5 -25 -10 -65 -12 l-72
-4 24 26 c25 26 56 31 111 17z m-3974 -10 c-4 -5 -1 -11 6 -13 7 -3 5 -7 -6
-11 -10 -4 -15 -3 -11 3 3 6 -4 10 -17 11 -23 1 -23 1 2 9 14 4 26 8 28 9 2 1
1 -3 -2 -8z m3801 -13 c-3 -8 -6 -5 -6 6 -1 11 2 17 5 13 3 -3 4 -12 1 -19z
m-3733 -7 c3 -4 3 -11 0 -14 -8 -7 -44 4 -44 14 0 12 37 12 44 0z m4184 2
c-10 -2 -26 -2 -35 0 -10 3 -2 5 17 5 19 0 27 -2 18 -5z m284 -21 c-27 -4 -37
2 -27 17 4 8 13 7 28 -1 l22 -13 -23 -3z m-4933 4 c-9 -8 -99 -13 -99 -5 0 5
23 9 52 9 28 0 49 -2 47 -4z m371 1 c0 -2 -17 -19 -37 -38 -20 -18 -31 -27
-25 -17 12 15 5 17 -65 23 -138 12 -149 23 -23 24 78 0 110 -2 100 -9 -13 -8
-13 -10 1 -10 9 0 22 7 29 15 12 14 20 19 20 12z m-330 -17 c0 -5 -19 -9 -42
-9 l-43 2 35 7 c19 4 38 8 43 9 4 0 7 -3 7 -9z m1480 -1 c46 -1 50 -3 25 -9
-16 -4 -61 -8 -99 -9 -39 0 -121 -6 -183 -12 -107 -11 -114 -11 -128 7 -22 30
4 35 175 29 85 -3 180 -5 210 -6z m2418 4 c-10 -2 -28 -2 -40 0 -13 2 -5 4 17
4 22 1 32 -1 23 -4z m106 -1 c2 -4 20 -7 40 -6 20 1 36 -2 36 -7 0 -12 -142
-1 -154 12 -6 5 5 9 31 9 23 0 44 -3 47 -8z m-3606 -9 c-10 -2 -28 -2 -40 0
-13 2 -5 4 17 4 22 1 32 -1 23 -4z m633 -14 c6 -12 7 -25 2 -29 -4 -4 -44 -13
-88 -20 -44 -6 -134 -23 -200 -36 -66 -13 -121 -24 -121 -24 -1 0 -4 16 -6 35
-5 41 7 55 54 61 18 3 58 8 89 12 53 7 55 7 51 -13 -3 -19 0 -21 33 -17 26 3
39 10 42 23 6 21 21 26 85 28 39 1 49 -3 59 -20z m3129 14 c-1 -23 -18 -35
-36 -25 -18 10 -17 11 6 21 32 12 30 12 30 4z m1067 1 c-3 -3 -12 -4 -19 -1
-8 3 -5 6 6 6 11 1 17 -2 13 -5z m-797 -29 c25 -2 99 -15 164 -27 93 -18 120
-26 124 -40 5 -20 17 -24 94 -33 34 -5 59 -13 62 -21 5 -12 -14 -13 -113 -9
-92 4 -145 12 -242 38 -68 19 -149 40 -179 46 -87 20 -87 20 -54 41 29 18 36
18 144 5z m260 -1 c24 -14 23 -14 -20 -8 -61 9 -86 23 -40 23 19 0 46 -6 60
-15z m580 1 c-7 -8 -17 -12 -23 -8 -12 8 -47 12 -47 6 0 -2 11 -8 25 -13 38
-14 32 -34 -7 -25 -34 7 -38 7 -73 5 -11 -1 -37 1 -57 4 -24 4 -38 2 -38 -5 0
-7 -22 -10 -60 -7 -33 1 -60 0 -60 -4 0 -5 -12 -8 -27 -8 l-28 1 22 18 c28 24
158 45 233 38 33 -3 63 -1 66 4 3 5 23 9 46 9 35 0 39 -2 28 -15z m-5415 -5
l30 -8 -30 0 c-16 0 -41 4 -55 8 l-25 8 25 0 c14 0 39 -4 55 -8z m4061 -7 c1
-7 2 -18 3 -24 0 -5 6 -7 11 -4 6 4 7 11 4 17 -5 7 -2 9 8 5 9 -3 20 -1 26 5
6 6 16 6 28 0 11 -5 26 -8 34 -5 8 2 -5 -6 -30 -19 -25 -12 -46 -26 -48 -30
-2 -4 -8 -8 -13 -8 -6 0 -7 4 -4 10 4 6 -6 8 -25 6 -33 -4 -51 10 -23 17 10 2
4 3 -13 2 -17 -2 -45 -17 -65 -34 -18 -17 -38 -31 -43 -31 -5 0 -20 -10 -33
-21 -19 -19 -23 -20 -29 -6 -7 20 29 57 56 57 11 0 20 4 20 9 0 5 15 18 33 30
17 11 28 21 22 21 -5 0 -3 5 5 10 20 14 75 8 76 -7z m1011 11 c-6 -6 -21 -9
-87 -16 -42 -4 -110 3 -110 12 0 6 41 10 102 10 56 0 98 -3 95 -6z m-4879 -9
c-8 -8 -118 -8 -125 -1 -4 3 24 6 62 6 38 0 66 -2 63 -5z m59 -1 c-3 -3 -12
-4 -19 -1 -8 3 -5 6 6 6 11 1 17 -2 13 -5z m1688 -3 c-16 -14 -548 -66 -593
-58 -12 2 -25 0 -28 -5 -3 -5 -15 0 -25 11 -23 24 -24 35 -5 28 8 -3 16 -2 18
3 2 5 71 13 153 18 200 12 491 14 480 3z m-2041 -9 c-7 -4 -14 -16 -17 -27 -4
-15 -5 -14 -6 8 -1 20 4 27 17 27 11 0 13 -3 6 -8z m496 3 c0 -6 -67 -40 -95
-49 -17 -5 -20 -1 -20 24 0 30 0 30 58 30 31 0 57 -2 57 -5z m92 -13 c-30 -9
-50 -20 -46 -24 4 -5 -4 -8 -17 -8 -13 -1 -35 -7 -49 -15 -14 -8 -38 -14 -55
-14 l-30 0 37 14 c20 7 54 25 75 39 29 20 50 26 88 25 l50 0 -53 -17z m-722
-9 c0 -10 -4 -14 -8 -8 -4 6 -11 13 -16 18 -5 4 -2 7 7 7 10 0 17 -8 17 -17z
m810 -2 c0 -6 -4 -13 -10 -16 -5 -3 -10 1 -10 9 0 9 5 16 10 16 6 0 10 -4 10
-9z m643 -22 c10 -11 17 -23 15 -25 -2 -2 -31 -5 -64 -6 -32 -2 -61 -6 -64 -9
-3 -3 -63 -17 -134 -31 -96 -19 -124 -21 -110 -11 17 13 12 14 -49 11 -37 -2
-67 0 -67 3 0 8 381 85 435 88 11 1 29 -8 38 -20z m3961 -42 c24 -5 32 -22 15
-33 -8 -4 -9 -3 -5 4 4 7 -8 15 -31 21 -74 19 -78 20 -38 16 22 -2 49 -6 59
-8z m-4894 -9 c0 -16 -76 -26 -210 -28 -80 -1 -142 2 -138 5 18 18 348 40 348
23z m1199 -21 c0 -8 -2 -8 -6 1 -4 9 -8 10 -18 2 -10 -8 -15 -8 -21 1 -4 7 -3
9 4 5 6 -3 13 -2 17 4 8 13 25 3 24 -13z m-846 6 c-7 -2 -19 -2 -25 0 -7 3 -2
5 12 5 14 0 19 -2 13 -5z m592 -3 c-3 -5 -17 -10 -31 -10 -14 0 -22 4 -19 10
3 6 17 10 31 10 14 0 22 -4 19 -10z m-445 -29 c0 -12 -107 -44 -120 -36 -6 3
-10 1 -10 -4 0 -6 -4 -11 -10 -11 -5 0 -10 6 -10 13 0 9 25 20 63 30 75 19 87
20 87 8z m272 -5 c15 -11 11 -15 -36 -29 -70 -22 -84 -20 -21 3 l50 18 -50 2
c-44 2 -47 3 -20 10 45 11 58 11 77 -4z m3708 4 c-19 -5 -39 -6 -44 -3 -5 4
-6 1 -2 -5 4 -7 18 -12 32 -12 13 0 24 -4 24 -8 0 -13 -64 -1 -72 13 -4 6 -21
12 -39 13 -17 0 -34 3 -37 6 -3 3 35 6 84 5 69 -1 81 -3 54 -9z m-5014 -39
c-4 -5 -15 -7 -26 -4 -20 5 -20 6 -4 25 16 16 19 17 26 3 5 -8 7 -19 4 -24z
m5065 9 c6 0 7 6 3 13 -4 6 5 1 18 -13 14 -14 24 -28 22 -32 -2 -3 2 -9 8 -11
10 -4 10 -6 0 -6 -7 -1 -15 5 -18 13 -3 9 -12 12 -21 9 -10 -4 -14 -2 -10 4 4
6 0 13 -8 17 -8 3 -15 11 -14 18 0 10 2 10 6 1 2 -7 9 -13 14 -13z m-3616 0
c3 -5 -7 -12 -22 -16 -15 -3 -34 -8 -42 -10 -11 -3 -9 1 4 16 19 21 50 27 60
10z m-618 -6 c-3 -3 -12 -4 -19 -1 -8 3 -5 6 6 6 11 1 17 -2 13 -5z m233 -19
c-47 -13 -116 -33 -155 -45 -38 -12 -79 -23 -90 -25 -58 -13 -152 -38 -165
-45 -8 -4 -33 -10 -55 -13 -56 -9 161 65 330 113 77 21 158 39 180 39 34 -1
28 -4 -45 -24z m4206 -38 c5 -5 -19 -6 -54 -4 -65 4 -85 13 -64 26 14 8 105
-9 118 -22z m-2982 -55 c-6 -4 -14 -14 -17 -22 -4 -10 -6 -8 -6 8 -1 15 5 22
17 22 10 0 13 -3 6 -8z m1166 -22 c0 -5 -4 -10 -10 -10 -5 0 -10 5 -10 10 0 6
5 10 10 10 6 0 10 -4 10 -10z m-2910 -44 c0 -2 -11 -6 -25 -8 -14 -3 -25 -1
-25 3 0 5 11 9 25 9 14 0 25 -2 25 -4z m523 -23 c-7 -2 -19 -2 -25 0 -7 3 -2
5 12 5 14 0 19 -2 13 -5z m-43 -7 c0 -2 -7 -6 -15 -10 -8 -3 -15 -1 -15 4 0 6
7 10 15 10 8 0 15 -2 15 -4z m-50 -16 c-8 -5 -53 -22 -100 -36 -172 -53 -165
-51 -179 -37 -7 7 -16 11 -22 8 -5 -4 -9 -1 -9 5 0 6 8 10 18 9 9 -1 24 1 32
4 39 15 171 38 181 31 7 -4 9 -3 5 4 -6 10 10 14 74 20 13 2 13 1 0 -8z m950
-31 c0 -14 -17 -10 -23 5 -4 10 -1 13 9 9 7 -3 14 -9 14 -14z m-1348 -59 c-29
-28 -28 -30 10 -19 17 5 34 7 36 5 5 -5 -58 -23 -110 -31 -21 -3 -38 -10 -38
-15 0 -4 -8 -7 -17 -5 -10 1 -29 -2 -43 -7 -14 -5 -33 -11 -43 -13 -10 -2 -26
-7 -36 -10 -14 -4 -16 1 -13 34 l4 39 89 11 c50 6 95 9 101 5 7 -5 8 -2 3 6
-5 9 -2 10 11 6 11 -3 26 -1 34 4 27 17 34 11 12 -10z m113 0 c-3 -5 -11 -10
-16 -10 -6 0 -7 5 -4 10 3 6 11 10 16 10 6 0 7 -4 4 -10z m-35 -4 c0 -3 -4 -8
-10 -11 -5 -3 -10 -1 -10 4 0 6 5 11 10 11 6 0 10 -2 10 -4z m145 -26 c-4 -6
12 -10 41 -10 26 0 45 -2 42 -5 -3 -3 -49 -14 -102 -24 -54 -11 -100 -22 -103
-25 -4 -3 16 -7 43 -8 37 -1 31 -3 -30 -8 -58 -4 -82 -11 -91 -24 -11 -14 -37
-19 -127 -27 -219 -17 -252 -25 -261 -58 -3 -9 -5 -4 -6 11 -1 31 -35 18 334
128 191 56 274 72 260 50z m-565 -84 c0 -2 -7 -7 -16 -10 -8 -3 -12 -2 -9 4 6
10 25 14 25 6z m1425 -26 c3 -6 -4 -10 -17 -10 -18 0 -20 2 -8 10 19 12 18 12
25 0z m-800 -20 c44 -5 13 -6 -85 -3 -85 3 -157 7 -159 9 -7 7 170 2 244 -6z
m-768 -6 c-3 -3 -12 -4 -19 -1 -8 3 -5 6 6 6 11 1 17 -2 13 -5z m486 -1 c-7
-2 -19 -2 -25 0 -7 3 -2 5 12 5 14 0 19 -2 13 -5z m-526 -9 c-3 -3 -12 -4 -19
-1 -8 3 -5 6 6 6 11 1 17 -2 13 -5z m1066 -1 c-13 -2 -35 -2 -50 0 -16 2 -5 4
22 4 28 0 40 -2 28 -4z m-300 -10 c-7 -2 -19 -2 -25 0 -7 3 -2 5 12 5 14 0 19
-2 13 -5z m433 -2 c-4 -5 0 -11 6 -14 30 -10 -2 -14 -62 -7 -54 6 -58 8 -25
10 39 2 39 3 10 10 -26 6 -22 8 23 9 30 0 51 -3 48 -8z m564 -1 c0 -5 -7 -7
-15 -4 -8 4 -15 8 -15 10 0 2 7 4 15 4 8 0 15 -4 15 -10z m-1207 -7 c-13 -2
-33 -2 -45 0 -13 2 -3 4 22 4 25 0 35 -2 23 -4z m825 0 c-21 -2 -57 -2 -80 0
-24 2 -7 4 37 4 44 0 63 -2 43 -4z m170 -10 c-10 -2 -28 -2 -40 0 -13 2 -5 4
17 4 22 1 32 -1 23 -4z m-515 -20 c-13 -2 -33 -2 -45 0 -13 2 -3 4 22 4 25 0
35 -2 23 -4z m170 -10 c-7 -2 -21 -2 -30 0 -10 3 -4 5 12 5 17 0 24 -2 18 -5z
m547 2 c0 -10 -30 -65 -35 -65 -3 0 -3 10 -1 23 3 12 5 28 5 35 1 11 31 18 31
7z m-39 -273 c-4 -15 -15 -28 -24 -30 -15 -3 -16 0 -6 22 7 14 16 26 21 26 5
0 6 5 2 12 -4 6 -3 8 4 4 6 -3 7 -17 3 -34z m-201 -159 c-11 -17 -11 -17 -6 0
3 10 7 26 7 35 1 15 2 15 6 0 2 -10 -1 -25 -7 -35z m-1492 -210 c-15 -2 -42
-2 -60 0 -18 2 -6 4 27 4 33 0 48 -2 33 -4z m575 0 c-7 -2 -21 -2 -30 0 -10 3
-4 5 12 5 17 0 24 -2 18 -5z m400 -60 c-35 -2 -91 -2 -125 0 -35 2 -7 3 62 3
69 0 97 -1 63 -3z m135 0 c-10 -2 -28 -2 -40 0 -13 2 -5 4 17 4 22 1 32 -1 23
-4z m-1055 -30 c-13 -2 -33 -2 -45 0 -13 2 -3 4 22 4 25 0 35 -2 23 -4z m240
0 c-13 -2 -33 -2 -45 0 -13 2 -3 4 22 4 25 0 35 -2 23 -4z m647 -23 c-20 -13
-50 -13 -50 0 0 6 15 10 33 10 24 0 28 -3 17 -10z m-620 -170 c0 -5 -73 -9
-162 -9 -103 0 -156 4 -143 9 25 11 305 11 305 0z"/>
<path d="M1910 5066 c0 -2 7 -7 16 -10 8 -3 12 -2 9 4 -6 10 -25 14 -25 6z"/>
<path d="M1861 4950 c-13 -11 -18 -20 -13 -20 6 0 14 5 17 10 4 6 10 8 14 6 4
-3 8 1 8 9 0 8 -1 15 -1 15 -1 -1 -12 -10 -25 -20z"/>
<path d="M1866 4913 c-6 -14 -5 -15 5 -6 7 7 10 15 7 18 -3 3 -9 -2 -12 -12z"/>
<path d="M1946 4882 c5 -4 12 -11 15 -15 3 -5 9 -2 12 5 3 9 -3 14 -15 15 -11
1 -16 -1 -12 -5z"/>
<path d="M2010 4798 c0 -11 12 -10 30 2 12 7 10 9 -8 7 -12 0 -22 -5 -22 -9z"/>
<path d="M1830 4837 c0 -2 6 -10 14 -16 11 -9 16 -9 22 1 4 7 4 10 -1 6 -4 -4
-14 -3 -22 3 -7 6 -13 9 -13 6z"/>
<path d="M1944 4655 c11 -8 24 -15 30 -15 5 0 1 7 -10 15 -10 8 -23 14 -29 14
-5 0 -1 -6 9 -14z"/>
<path d="M684 4561 c-21 -6 -21 -6 -2 -26 16 -16 18 -17 13 -2 -6 13 -2 17 14
17 12 0 21 4 21 8 0 10 -16 11 -46 3z"/>
<path d="M750 4476 c0 -2 7 -7 16 -10 8 -3 12 -2 9 4 -6 10 -25 14 -25 6z"/>
<path d="M638 4453 c7 -3 16 -2 19 1 4 3 -2 6 -13 5 -11 0 -14 -3 -6 -6z"/>
<path d="M730 4436 c0 -2 7 -6 15 -10 8 -3 15 -1 15 4 0 6 -7 10 -15 10 -8 0
-15 -2 -15 -4z"/>
<path d="M2170 4529 c0 -5 5 -7 10 -4 6 3 10 8 10 11 0 2 -4 4 -10 4 -5 0 -10
-5 -10 -11z"/>
<path d="M5582 4394 c10 -10 20 -15 24 -12 3 4 -5 12 -18 18 -22 12 -22 12 -6
-6z"/>
<path d="M976 4157 c3 -10 9 -15 12 -12 3 3 0 11 -7 18 -10 9 -11 8 -5 -6z"/>
<path d="M1045 4160 c-3 -5 -1 -10 4 -10 6 0 11 5 11 10 0 6 -2 10 -4 10 -3 0
-8 -4 -11 -10z"/>
<path d="M5176 4142 c-3 -5 1 -9 9 -9 8 0 12 4 9 9 -3 4 -7 8 -9 8 -2 0 -6 -4
-9 -8z"/>
<path d="M605 3730 c27 -12 35 -12 35 0 0 6 -12 10 -27 9 -25 0 -26 -1 -8 -9z"/>
<path d="M1210 2780 c-22 -7 -20 -8 12 -7 20 1 34 5 31 10 -5 8 -9 8 -43 -3z"/>
<path d="M5258 2543 c6 -2 18 -2 25 0 6 3 1 5 -13 5 -14 0 -19 -2 -12 -5z"/>
<path d="M790 2310 c0 -5 7 -7 15 -4 8 4 15 8 15 10 0 2 -7 4 -15 4 -8 0 -15
-4 -15 -10z"/>
<path d="M558 2143 c17 -2 47 -2 65 0 17 2 3 4 -33 4 -36 0 -50 -2 -32 -4z"/>
<path d="M2388 5874 c3 -18 15 -31 38 -40 55 -23 89 -18 117 17 24 31 25 32
36 10 7 -11 18 -21 26 -21 8 0 19 -9 25 -20 6 -11 17 -20 24 -20 19 0 108
-119 102 -136 -3 -8 -13 -14 -23 -14 -17 -1 -16 -2 2 -15 18 -14 22 -12 60 24
64 63 215 137 316 155 83 16 168 21 157 11 -6 -6 -91 -29 -172 -45 -44 -9 -82
-27 -147 -72 -90 -61 -125 -104 -113 -140 3 -10 1 -18 -5 -18 -5 0 -28 -55
-50 -123 -29 -89 -41 -146 -45 -208 l-5 -84 56 105 c53 99 67 115 232 280 180
179 251 262 290 338 l21 42 -473 0 -474 0 5 -26z m107 -13 c3 -5 1 -12 -5 -16
-5 -3 -10 1 -10 9 0 18 6 21 15 7z"/>
<path d="M2368 5822 c-9 -2 -20 -12 -23 -23 -4 -10 -13 -19 -22 -19 -12 0 -9
-7 11 -26 14 -15 26 -34 27 -43 0 -10 2 -12 6 -3 2 6 10 12 18 12 9 0 11 13 8
48 -6 60 -5 58 -25 54z"/>
<path d="M1965 5251 c-3 -5 -2 -12 3 -15 5 -3 9 1 9 9 0 17 -3 19 -12 6z"/>
<path d="M2030 5190 c8 -5 20 -10 25 -10 6 0 3 5 -5 10 -8 5 -19 10 -25 10 -5
0 -3 -5 5 -10z"/>
<path d="M3889 5195 c-1 -3 -2 -11 -3 -17 -1 -7 -7 -12 -14 -10 -8 1 -12 -12
-10 -43 0 -24 5 -42 10 -39 4 3 5 16 2 29 -7 29 4 54 16 35 5 -7 7 1 6 19 -1
28 -4 39 -7 26z"/>
<path d="M3996 5173 c-6 -14 -5 -15 5 -6 7 7 10 15 7 18 -3 3 -9 -2 -12 -12z"/>
<path d="M4019 5163 c-13 -16 -12 -17 4 -4 16 13 21 21 13 21 -2 0 -10 -8 -17
-17z"/>
<path d="M2037 5153 c3 -7 6 -13 8 -13 2 0 5 6 8 13 3 8 -1 14 -8 14 -7 0 -11
-6 -8 -14z"/>
<path d="M2000 5156 c0 -2 8 -10 18 -17 15 -13 16 -12 3 4 -13 16 -21 21 -21
13z"/>
<path d="M3913 5099 c-2 -23 3 -25 10 -4 4 8 3 16 -1 19 -4 3 -9 -4 -9 -15z"/>
<path d="M2083 5040 c1 -11 5 -20 9 -20 11 0 10 28 -1 35 -6 3 -9 -4 -8 -15z"/>
<path d="M3949 4997 c6 -8 9 -16 6 -19 -3 -2 2 -5 10 -5 13 0 13 3 -2 19 -19
21 -31 25 -14 5z"/>
<path d="M3986 4882 c-2 -4 -1 -14 4 -22 7 -11 9 -9 7 8 -1 24 -3 26 -11 14z"/>
<path d="M3881 4854 c0 -11 3 -14 6 -6 3 7 2 16 -1 19 -3 4 -6 -2 -5 -13z"/>
<path d="M4090 4860 c-9 -6 -10 -10 -3 -10 6 0 15 5 18 10 8 12 4 12 -15 0z"/>
<path d="M4378 4823 c7 -3 16 -2 19 1 4 3 -2 6 -13 5 -11 0 -14 -3 -6 -6z"/>
<path d="M280 4776 c0 -2 8 -10 18 -17 15 -13 16 -12 3 4 -13 16 -21 21 -21
13z"/>
<path d="M3907 4763 c3 -7 6 -13 8 -13 2 0 5 6 8 13 3 8 -1 14 -8 14 -7 0 -11
-6 -8 -14z"/>
<path d="M3906 4667 c-16 -12 -16 -13 2 -13 10 0 19 6 19 13 0 7 -1 13 -2 13
-1 0 -9 -6 -19 -13z"/>
<path d="M85 4613 c4 -14 2 -23 -4 -23 -6 0 -11 -7 -11 -16 0 -10 5 -14 16
-10 8 3 12 2 9 -3 -3 -5 0 -13 6 -17 7 -4 9 -3 6 3 -4 6 3 19 16 29 18 16 19
16 8 2 -16 -22 -3 -23 23 -3 16 12 17 18 8 27 -8 8 -12 8 -12 1 0 -17 -38 -9
-55 12 -16 20 -16 20 -10 -2z"/>
<path d="M1 4601 c5 -13 19 -16 20 -4 0 4 -5 9 -12 12 -6 2 -10 -2 -8 -8z"/>
<path d="M16 4544 c-11 -8 -16 -14 -10 -14 13 0 39 18 34 24 -3 2 -14 -2 -24
-10z"/>
<path d="M55 4519 c-4 -6 -4 -13 -1 -16 3 -4 6 -1 6 5 0 7 8 12 18 12 13 0 14
-2 4 -9 -22 -13 27 -22 70 -12 20 5 39 7 41 4 3 -2 7 3 10 12 5 13 -5 15 -68
15 -41 0 -77 -5 -80 -11z"/>
<path d="M20 4505 c0 -8 0 -18 1 -21 0 -4 -5 -10 -12 -15 -21 -13 -3 -22 20
-9 22 11 28 30 10 30 -6 0 -9 7 -5 15 3 8 1 15 -4 15 -6 0 -10 -7 -10 -15z"/>
<path d="M2520 4480 c0 -12 67 -12 95 0 14 6 4 9 -37 9 -33 1 -58 -3 -58 -9z"/>
<path d="M266 4426 c3 -8 14 -16 24 -19 16 -4 17 -2 7 14 -14 22 -39 26 -31 5z"/>
<path d="M2120 4249 c0 -5 5 -7 10 -4 6 3 10 8 10 11 0 2 -4 4 -10 4 -5 0 -10
-5 -10 -11z"/>
<path d="M3423 4230 c-37 -8 -107 -44 -143 -72 -51 -40 -130 -120 -125 -128 5
-7 34 -2 115 21 95 27 206 38 305 28 144 -13 278 -45 343 -80 20 -10 42 -19
48 -19 40 0 161 -91 237 -178 20 -24 37 -38 37 -32 0 6 -16 45 -35 87 -19 42
-35 77 -35 79 0 1 7 4 15 6 9 2 -1 19 -33 54 -49 53 -144 134 -157 134 -5 0
-36 13 -70 29 -113 54 -236 81 -360 80 -60 -1 -124 -4 -142 -9z"/>
<path d="M2068 4179 c-26 -28 -61 -79 -78 -113 -17 -33 -24 -52 -16 -41 8 11
19 25 23 30 46 56 82 109 78 115 -3 4 2 10 9 13 13 5 42 47 33 47 -1 0 -24
-23 -49 -51z"/>
<path d="M2345 4171 c-132 -17 -323 -116 -401 -208 -44 -51 -116 -172 -96
-159 15 9 16 15 -13 -78 -14 -44 -23 -81 -21 -83 2 -2 20 25 40 61 49 88 126
153 253 216 106 53 118 57 258 91 91 21 264 21 348 -1 78 -20 78 -1 2 59 -107
84 -149 103 -235 106 -41 2 -102 0 -135 -4z"/>
<path d="M110 4060 c-13 -25 9 -37 37 -21 16 9 15 11 -7 12 -17 1 -20 3 -7 6
21 5 23 23 2 23 -8 0 -19 -9 -25 -20z"/>
<path d="M3432 3858 c-57 -21 -72 -39 -52 -62 9 -12 6 -24 -13 -58 -13 -24
-26 -54 -30 -68 -3 -14 -15 -61 -27 -105 -13 -52 -20 -105 -19 -150 3 -89 6
-102 31 -109 16 -4 18 -2 9 7 -16 16 -14 127 4 177 8 23 15 58 15 77 0 35 46
143 62 143 4 0 8 9 8 20 0 31 44 53 101 51 32 -1 48 2 44 9 -9 14 5 13 56 -5
71 -25 109 -46 194 -109 100 -74 175 -159 175 -197 0 -15 -4 -31 -10 -34 -5
-3 -10 -16 -10 -28 0 -18 2 -19 10 -7 5 8 10 11 10 7 0 -5 16 1 35 13 19 12
39 19 45 15 24 -15 7 37 -26 81 -20 26 -45 73 -55 103 -18 53 -90 151 -110
151 -5 0 -1 -10 11 -22 11 -12 20 -28 20 -35 0 -7 4 -13 10 -13 5 0 12 -11 16
-25 3 -14 11 -25 17 -25 6 0 8 -3 4 -6 -3 -4 -25 13 -49 36 -41 40 -197 150
-214 150 -4 0 -15 6 -23 14 -10 8 -51 16 -101 19 -70 4 -94 2 -138 -15z"/>
<path d="M3720 3866 c0 -2 7 -7 16 -10 8 -3 12 -2 9 4 -6 10 -25 14 -25 6z"/>
<path d="M3780 3830 c20 -13 40 -13 40 0 0 6 -12 10 -27 10 -22 0 -25 -2 -13
-10z"/>
<path d="M2394 3804 c-97 -21 -254 -142 -316 -245 -14 -23 -22 -29 -28 -19 -5
8 -12 -7 -19 -41 -7 -29 -23 -72 -36 -96 -27 -46 -32 -73 -12 -73 7 0 29 -9
50 -20 41 -22 45 -17 21 33 -15 32 -15 36 6 78 38 75 131 186 147 176 5 -3 34
15 66 39 33 24 65 44 72 44 7 0 18 6 25 14 6 8 24 16 38 18 16 2 27 9 27 18 0
8 14 17 34 21 31 6 39 3 71 -29 21 -21 41 -47 44 -59 4 -13 12 -23 18 -23 6 0
8 -12 5 -27 -3 -17 3 -44 18 -73 12 -25 26 -60 30 -78 3 -18 11 -30 15 -27 5
3 12 -11 15 -32 10 -58 16 -64 10 -9 -3 27 -5 63 -6 80 0 26 -2 28 -8 11 -6
-15 -10 -4 -16 42 -5 49 -10 60 -22 56 -9 -4 -14 0 -13 8 5 35 -1 59 -15 59
-9 0 -15 9 -15 22 0 12 -8 30 -17 40 -13 14 -14 21 -5 30 48 48 -68 88 -184
62z"/>
<path d="M3830 3806 c0 -2 7 -6 15 -10 8 -3 15 -1 15 4 0 6 -7 10 -15 10 -8 0
-15 -2 -15 -4z"/>
<path d="M4830 3750 c0 -5 5 -10 10 -10 6 0 10 5 10 10 0 6 -4 10 -10 10 -5 0
-10 -4 -10 -10z"/>
<path d="M2170 3740 c0 -5 4 -10 9 -10 6 0 13 5 16 10 3 6 -1 10 -9 10 -9 0
-16 -4 -16 -10z"/>
<path d="M4232 3737 c-9 -11 -10 -17 -2 -22 15 -9 23 -1 18 21 -3 15 -4 16
-16 1z"/>
<path d="M3460 3695 c0 -2 10 -10 23 -16 20 -11 21 -11 8 4 -13 16 -31 23 -31
12z"/>
<path d="M4215 3668 c-11 -6 -24 -17 -28 -25 -4 -7 -18 -13 -30 -13 -47 0 -63
-44 -22 -60 14 -5 25 -14 25 -20 0 -5 7 -10 15 -10 8 0 15 5 15 10 0 6 9 10
20 10 11 0 28 4 38 9 9 5 25 12 35 15 23 7 22 31 -5 66 -24 33 -33 35 -63 18z"/>
<path d="M110 3646 c0 -7 9 -16 20 -19 11 -3 20 -1 20 4 0 5 -7 9 -16 9 -8 0
-12 5 -9 10 3 6 1 10 -4 10 -6 0 -11 -6 -11 -14z"/>
<path d="M3500 3629 c0 -33 -43 -77 -78 -81 -27 -3 -27 -4 -30 -88 -2 -49 2
-104 10 -130 7 -25 13 -48 13 -52 0 -13 20 -25 52 -31 31 -6 31 -5 45 46 17
67 18 314 1 342 -12 19 -12 19 -13 -6z"/>
<path d="M2062 3605 c-7 -14 -12 -30 -12 -35 0 -17 17 -11 23 8 2 9 8 25 12
35 11 27 -11 20 -23 -8z"/>
<path d="M2370 3610 c0 -5 7 -10 16 -10 8 0 12 5 9 10 -3 6 -10 10 -16 10 -5
0 -9 -4 -9 -10z"/>
<path d="M2420 3533 c0 -18 -13 -38 -39 -62 -38 -35 -39 -37 -31 -86 20 -122
55 -245 71 -245 18 0 48 39 58 77 19 67 10 173 -24 289 -17 57 -35 72 -35 27z"/>
<path d="M4305 3490 c-3 -6 1 -7 9 -4 18 7 21 14 7 14 -6 0 -13 -4 -16 -10z"/>
<path d="M2080 3281 c0 -10 19 -25 25 -20 1 2 -3 10 -11 17 -8 7 -14 8 -14 3z"/>
<path d="M5768 3253 c7 -3 16 -2 19 1 4 3 -2 6 -13 5 -11 0 -14 -3 -6 -6z"/>
<path d="M2215 3171 c30 -19 117 -41 103 -26 -9 9 -107 45 -123 45 -5 0 4 -9
20 -19z"/>
<path d="M5105 3140 c-3 -6 1 -7 9 -4 18 7 21 14 7 14 -6 0 -13 -4 -16 -10z"/>
<path d="M2338 3133 c7 -3 16 -2 19 1 4 3 -2 6 -13 5 -11 0 -14 -3 -6 -6z"/>
<path d="M4715 3099 c-4 -6 -5 -12 -2 -15 2 -3 7 2 10 11 7 17 1 20 -8 4z"/>
<path d="M3239 3096 c-2 -2 -19 -6 -38 -9 -18 -3 -38 -10 -44 -16 -6 -6 -21
-11 -33 -11 -12 0 -24 -5 -26 -10 -2 -6 -17 -10 -33 -11 -17 0 -68 1 -115 1
-47 0 -106 -5 -131 -11 -35 -9 -57 -9 -92 -1 -25 7 -62 12 -81 12 -32 0 -36
-3 -36 -26 0 -32 14 -58 57 -109 71 -82 139 -147 183 -173 25 -14 48 -31 52
-37 4 -5 8 -7 8 -4 0 4 16 3 35 -1 19 -4 37 -4 40 1 3 4 12 6 21 2 8 -3 14 -2
12 3 -2 5 0 10 4 12 4 1 49 44 100 96 110 110 153 180 144 234 -3 20 -7 43 -8
50 -1 12 -11 16 -19 8z"/>
<path d="M4760 3071 c0 -7 -4 -9 -10 -6 -5 3 -10 1 -10 -4 0 -6 4 -11 9 -11
13 0 25 20 17 27 -3 4 -6 1 -6 -6z"/>
<path d="M5320 2930 c6 -11 13 -20 16 -20 2 0 0 9 -6 20 -6 11 -13 20 -16 20
-2 0 0 -9 6 -20z"/>
<path d="M4106 2674 c-10 -25 -7 -34 9 -34 8 0 15 9 15 19 0 26 -16 35 -24 15z"/>
<path d="M4427 2603 l-46 -48 52 -7 c28 -3 68 -11 87 -17 19 -6 41 -11 47 -11
19 0 16 31 -4 46 -15 11 -15 13 -3 13 25 0 74 -45 64 -60 -6 -12 -5 -12 9 0 9
7 17 9 17 3 0 -11 70 -48 85 -43 5 1 6 -1 2 -6 -11 -11 -30 -11 -38 0 -8 11
-69 -1 -69 -14 0 -5 -23 -9 -52 -9 -28 0 -49 -2 -46 -5 3 -3 95 -1 205 5 130
7 215 7 243 1 41 -9 110 -4 110 8 0 3 -4 12 -9 20 -7 11 -13 10 -34 -4 -21
-14 -29 -14 -47 -3 -16 9 -24 10 -27 2 -7 -20 -178 34 -305 96 -68 33 -127 60
-131 60 -4 0 -3 -9 3 -19 8 -15 7 -19 -6 -17 -9 1 -20 9 -25 17 -8 12 -11 12
-20 -1 -9 -13 -10 -13 -6 1 3 9 2 21 -2 28 -6 9 -22 -3 -54 -36z"/>
<path d="M5413 2574 c4 -7 1 -14 -7 -17 -8 -3 -16 -24 -18 -46 l-4 -41 97 0
c68 0 99 4 101 12 3 7 30 15 64 18 52 4 59 8 62 28 2 12 -1 22 -7 22 -6 0 -11
-5 -11 -11 0 -7 -14 -10 -35 -7 -19 2 -35 0 -35 -5 0 -10 -76 1 -102 15 -11 5
-18 5 -18 -1 0 -14 -42 -1 -69 23 -13 11 -21 16 -18 10z"/>
<path d="M4313 2546 c-3 -6 -3 -8 2 -4 4 4 13 3 20 -2 8 -7 12 -5 12 3 0 16
-25 18 -34 3z"/>
<path d="M599 2526 c-4 -4 -140 -30 -489 -93 -85 -15 -151 -39 -80 -28 19 2
80 10 135 16 55 6 181 31 280 55 172 44 206 54 173 54 -8 0 -17 -2 -19 -4z"/>
<path d="M5716 2514 c-8 -22 4 -40 15 -23 7 12 9 12 9 0 0 -7 6 -11 15 -7 8 3
15 1 15 -4 0 -8 15 -12 94 -26 30 -5 38 -4 34 7 -4 13 -36 23 -100 34 -15 2
-38 11 -51 20 -23 14 -25 14 -31 -1z"/>
<path d="M4513 2505 c0 -8 7 -15 15 -15 12 0 12 3 2 15 -7 8 -13 15 -15 15 -1
0 -2 -7 -2 -15z"/>
<path d="M1580 2500 c0 -5 5 -10 11 -10 5 0 7 5 4 10 -3 6 -8 10 -11 10 -2 0
-4 -4 -4 -10z"/>
<path d="M5323 2483 c9 -2 23 -2 30 0 6 3 -1 5 -18 5 -16 0 -22 -2 -12 -5z"/>
<path d="M5138 2473 c18 -2 45 -2 60 0 15 2 0 4 -33 4 -33 0 -45 -2 -27 -4z"/>
<path d="M1643 2413 c26 -2 67 -2 90 0 23 2 2 3 -48 3 -49 0 -68 -1 -42 -3z"/>
<path d="M368 2403 c6 -2 18 -2 25 0 6 3 1 5 -13 5 -14 0 -19 -2 -12 -5z"/>
<path d="M5432 2401 c-11 -7 -11 -9 2 -14 9 -4 22 -4 30 -1 10 4 16 -5 21 -25
l7 -31 204 0 204 0 0 35 c0 32 -3 35 -28 35 -16 0 -32 -3 -35 -7 -4 -4 -31 -8
-60 -9 -28 -1 -106 -5 -171 -10 -89 -5 -117 -4 -112 4 4 7 2 12 -4 12 -6 0 -9
4 -6 8 6 11 -36 13 -52 3z"/>
<path d="M5518 2403 c12 -3 19 -9 16 -15 -7 -11 6 -9 91 10 35 9 29 10 -45 9
-47 0 -75 -2 -62 -4z"/>
<path d="M5250 2393 c8 -3 21 -10 28 -16 9 -7 11 -6 6 7 -3 9 -16 16 -28 15
-14 0 -16 -2 -6 -6z"/>
<path d="M5300 2390 c0 -5 14 -10 30 -10 17 0 30 5 30 10 0 6 -13 10 -30 10
-16 0 -30 -4 -30 -10z"/>
<path d="M5370 2384 c0 -8 -6 -14 -14 -14 -8 0 -16 -6 -19 -13 -3 -9 -28 -14
-78 -15 -110 -3 -96 -12 19 -12 64 0 102 -4 104 -11 2 -7 20 -8 51 -4 37 6 47
11 47 26 0 13 -7 19 -24 19 -14 0 -28 -4 -31 -10 -3 -5 -15 -10 -26 -10 -13 0
-18 4 -13 12 5 8 2 9 -9 5 -14 -5 -15 -3 -5 13 7 10 15 17 19 14 4 -2 10 -1
13 4 2 4 -4 9 -15 9 -10 1 -19 -5 -19 -13z"/>
<path d="M23 2383 c9 -2 23 -2 30 0 6 3 -1 5 -18 5 -17 0 -22 -2 -12 -5z"/>
<path d="M1323 2353 c9 -2 23 -2 30 0 6 3 -1 5 -18 5 -16 0 -22 -2 -12 -5z"/>
<path d="M1398 2353 c12 -2 30 -2 40 0 9 3 -1 5 -23 4 -22 0 -30 -2 -17 -4z"/>
<path d="M1568 2343 c12 -2 30 -2 40 0 9 3 -1 5 -23 4 -22 0 -30 -2 -17 -4z"/>
<path d="M1800 2340 c-12 -8 -10 -10 8 -10 13 0 20 4 17 10 -7 12 -6 12 -25 0z"/>
<path d="M4623 2323 c9 -2 23 -2 30 0 6 3 -1 5 -18 5 -16 0 -22 -2 -12 -5z"/>
<path d="M5819 2246 c-2 -2 -67 -5 -144 -6 -741 -8 -1057 -14 -1040 -21 l20
-8 -20 0 c-11 -1 -16 -5 -10 -9 6 -4 11 -18 13 -31 1 -14 4 -27 7 -29 7 -7
580 6 1093 24 l162 6 0 39 c0 39 0 39 -38 39 -21 0 -41 -2 -43 -4z"/>
<path d="M1055 2211 c4 -3 33 -7 66 -7 78 -2 68 7 -11 11 -34 1 -58 0 -55 -4z"/>
<path d="M5790 2150 c-19 -4 -44 -11 -55 -15 -16 -5 -17 -5 -5 4 11 8 3 10
-35 10 -56 -1 -124 -15 -90 -19 15 -1 13 -4 -9 -10 -33 -10 -114 -2 -133 12
-11 9 -314 5 -658 -7 -66 -3 -126 -5 -132 -5 -15 0 -17 -36 -3 -45 6 -4 8 -10
6 -14 -3 -4 128 -11 292 -14 163 -4 351 -9 417 -12 66 -2 112 -2 103 1 -10 3
-18 10 -18 15 0 5 8 10 18 11 9 0 -3 4 -28 9 -45 7 -27 7 298 -7 l142 -7 0 42
c0 26 -5 41 -12 41 -10 0 -10 2 0 9 17 10 -47 11 -98 1z m-1005 -52 c7 -6 -9
-9 -45 -7 -60 2 -78 8 -62 18 15 9 95 1 107 -11z m120 2 c3 -5 16 -10 28 -10
15 0 18 -3 10 -11 -13 -13 -67 -3 -58 11 3 5 -5 11 -17 13 -20 4 -20 4 4 6 15
0 30 -3 33 -9z m339 -18 c30 -12 40 -14 44 -4 4 14 48 16 57 2 3 -5 -2 -11
-12 -12 -10 -1 7 -4 37 -8 52 -6 50 -7 -31 -8 -122 -3 -209 8 -209 24 0 9 -11
14 -30 14 -16 0 -30 5 -30 11 0 16 125 3 174 -19z m631 10 c-3 -3 -11 0 -18 7
-9 10 -8 11 6 5 10 -3 15 -9 12 -12z m-776 -16 c-2 -2 -26 -6 -53 -9 -30 -3
-43 -1 -35 4 13 8 97 13 88 5z m764 -3 c-13 -2 -35 -2 -50 0 -16 2 -5 4 22 4
28 0 40 -2 28 -4z"/>
<path d="M5553 2063 c15 -2 25 -9 22 -14 -4 -5 6 -9 21 -9 43 0 15 21 -32 24
-22 2 -27 1 -11 -1z"/>
<path d="M5718 2043 c34 -2 90 -2 125 0 34 2 6 3 -63 3 -69 0 -97 -1 -62 -3z"/>
<path d="M4675 2030 c-3 -6 1 -7 9 -4 18 7 21 14 7 14 -6 0 -13 -4 -16 -10z"/>
<path d="M4820 2022 c0 -6 6 -12 13 -15 27 -10 -8 -22 -74 -25 -66 -4 -69 -5
-69 -30 l0 -25 213 7 c506 16 789 25 889 28 78 2 108 6 108 16 0 8 -22 12 -77
12 -43 0 -96 5 -118 10 -59 14 -244 23 -225 10 11 -7 5 -10 -25 -9 -31 0 -36
2 -20 9 11 5 15 9 8 9 -7 1 -24 -4 -38 -11 -21 -9 -28 -9 -34 1 -6 9 -16 11
-32 5 -13 -4 -28 -6 -34 -4 -38 14 -485 25 -485 12z m140 -6 c0 -2 -7 -7 -16
-10 -8 -3 -12 -2 -9 4 6 10 25 14 25 6z m320 -22 c0 -2 -15 -4 -32 -3 -27 0
-29 2 -13 8 18 8 45 4 45 -5z m287 10 c-3 -3 -12 -4 -19 -1 -8 3 -5 6 6 6 11
1 17 -2 13 -5z"/>
<path d="M3712 1990 c-12 -13 -22 -28 -22 -34 0 -5 -7 -18 -17 -28 -15 -17
-14 -18 30 -18 46 0 47 0 46 33 0 17 -4 41 -8 51 -7 18 -8 18 -29 -4z"/>
<path d="M1430 1949 c0 -5 -5 -7 -11 -3 -6 3 -21 2 -32 -3 -52 -24 -83 -29
-117 -19 -19 6 -38 15 -42 20 -4 6 -12 -3 -19 -18 -11 -23 -10 -29 2 -37 19
-13 226 -6 241 9 12 12 3 62 -12 62 -6 0 -10 -5 -10 -11z"/>
<path d="M3700 1865 c6 -8 26 -17 43 -21 36 -8 139 -58 179 -87 15 -11 40 -20
57 -19 23 0 41 -12 88 -61 32 -34 67 -73 78 -87 11 -14 29 -32 41 -40 54 -37
111 -99 133 -143 26 -50 53 -72 76 -63 27 10 95 -142 97 -215 1 -16 5 -29 10
-29 5 0 6 -4 3 -10 -3 -5 -1 -10 4 -10 6 0 22 -22 36 -50 15 -30 32 -50 43
-51 10 0 12 -3 4 -6 -13 -5 -7 -23 8 -23 10 0 7 70 -5 112 -4 16 -11 26 -15
23 -14 -9 -47 57 -73 145 -14 47 -41 119 -60 160 -18 41 -41 98 -51 125 -28
85 -38 88 -33 13 l5 -67 -114 111 c-63 62 -114 117 -114 123 0 18 -64 74 -131
115 -62 39 -79 42 -79 14 0 -21 -18 -17 -88 16 -66 33 -162 49 -142 25z"/>
<path d="M2686 1818 c-8 -47 0 -60 31 -52 23 6 24 14 4 62 -18 43 -27 40 -35
-10z"/>
<path d="M2786 1827 c-9 -33 -7 -37 12 -31 9 4 4 -5 -13 -20 -16 -14 -34 -25
-39 -26 -4 0 -35 -25 -67 -55 -55 -50 -141 -115 -153 -115 -3 0 -3 6 0 14 3 8
0 17 -7 22 -19 11 -137 -120 -167 -186 -14 -30 -41 -77 -62 -105 -70 -95 -99
-140 -126 -195 l-28 -55 -9 83 c-10 87 -23 106 -32 45 -14 -95 -28 -158 -50
-228 -14 -42 -25 -86 -25 -98 0 -41 -22 -100 -46 -124 -46 -46 -21 -130 26
-88 20 18 55 129 51 163 -1 12 7 34 18 48 11 15 18 30 16 34 -3 5 -1 11 4 15
6 3 8 12 5 19 -4 9 5 16 24 21 43 9 66 33 82 85 15 48 22 59 119 189 35 47 73
106 85 131 39 84 65 117 94 123 15 3 36 19 46 34 10 15 57 60 103 98 46 39 94
84 107 102 12 18 40 47 62 64 21 18 31 29 22 26 -12 -4 -18 -1 -18 7 0 24 -28
26 -34 3z"/>
<path d="M4282 1818 c-20 -41 -17 -55 20 -91 20 -19 44 -51 52 -72 9 -21 18
-36 21 -33 10 10 22 134 15 147 -6 12 -12 9 -31 -11 -35 -37 -49 -26 -42 33 5
39 3 49 -9 49 -8 0 -20 -10 -26 -22z"/>
<path d="M2550 1726 c0 -26 13 -35 25 -16 3 6 -1 17 -9 26 -15 14 -16 13 -16
-10z"/>
<path d="M4484 1675 c-16 -27 -40 -61 -54 -76 -20 -20 -24 -31 -17 -46 8 -19
11 -19 38 -6 16 8 31 18 34 24 13 19 26 7 55 -50 26 -52 32 -98 11 -88 -13 7
-36 -29 -39 -61 -3 -28 53 -222 64 -222 2 0 11 14 20 32 19 37 14 40 84 -61
31 -44 60 -66 60 -43 -1 20 -41 182 -54 221 -18 49 -21 75 -5 49 5 -10 18 -18
27 -18 13 0 14 -2 4 -9 -10 -6 7 -53 71 -197 126 -283 165 -411 193 -634 17
-138 18 -197 3 -256 -10 -39 -14 -43 -27 -32 -9 7 9 -34 40 -92 l57 -105 425
-3 426 -2 0 43 c0 38 -4 45 -27 55 -28 11 -28 11 -3 9 l25 -2 3 582 2 582 -32
-5 c-31 -5 -325 11 -432 23 -36 4 -47 2 -41 -7 6 -9 3 -9 -13 -1 -11 6 -32 11
-46 11 -26 0 -37 19 -13 21 43 5 182 -5 188 -14 3 -4 28 -8 55 -8 65 -1 247
12 256 17 4 3 16 0 27 -6 11 -5 27 -7 35 -4 14 5 16 30 16 169 l0 164 -47 -5
c-42 -4 -433 -13 -607 -15 -61 0 -80 6 -57 21 8 5 11 15 7 25 -3 10 -9 15 -13
11 -3 -3 -17 1 -31 10 -20 13 -32 14 -66 5 -22 -5 -108 -13 -189 -17 -139 -6
-147 -7 -142 -25 4 -13 2 -19 -9 -19 -10 0 -16 9 -17 23 -1 18 -3 16 -9 -8 -6
-22 -8 -25 -10 -10 -1 11 -8 -5 -15 -35 l-13 -55 -2 50 c-3 58 -17 124 -19 88
-2 -36 -21 -27 -21 9 0 26 -2 30 -12 19 -9 -8 -12 -42 -10 -113 2 -84 0 -99
-11 -89 -19 15 -80 148 -87 191 l-6 35 -30 -50z m616 -55 c0 -5 -9 -10 -21
-10 -11 0 -17 5 -14 10 3 6 13 10 21 10 8 0 14 -4 14 -10z"/>
<path d="M4136 1388 c-41 -122 -43 -136 -25 -186 8 -22 7 -36 -1 -52 -11 -21
-2 -120 34 -340 12 -74 9 -112 -15 -230 -18 -86 -29 -118 -43 -123 -15 -6 -29
-47 -16 -47 4 0 4 -15 1 -32 -6 -26 -12 -32 -27 -30 -15 2 -29 -10 -49 -40
-16 -24 -41 -54 -57 -68 -26 -23 -29 -32 -31 -97 -1 -42 2 -73 7 -73 6 0 5 -5
-2 -12 -19 -19 -14 -45 11 -52 12 -3 61 -6 109 -6 74 0 87 3 91 18 4 16 5 16
6 0 1 -17 19 -18 226 -18 l224 0 6 38 c4 20 10 47 15 58 4 12 7 40 5 63 -2 22
1 41 6 41 6 0 7 4 4 10 -3 5 -2 10 3 10 5 0 22 13 38 30 16 16 36 30 45 30 15
0 16 14 13 113 -5 118 -5 117 34 30 14 -31 32 -44 32 -23 0 14 101 -98 129
-142 27 -45 32 -48 22 -10 -5 15 -7 35 -5 45 1 9 -2 15 -7 11 -5 -3 -9 4 -9
15 0 12 -5 21 -12 21 -6 0 -8 3 -5 6 4 4 -6 18 -21 32 -15 13 -20 21 -12 17 8
-4 -4 12 -27 36 -23 24 -53 58 -67 74 -22 26 -25 28 -26 10 -1 -11 -7 -3 -13
19 -15 50 -31 48 -35 -6 -2 -24 -9 -46 -15 -50 -9 -6 -9 -8 1 -8 7 0 10 -5 7
-10 -4 -6 -6 -41 -6 -79 0 -72 -4 -78 -53 -88 -16 -3 -17 -1 -5 14 8 9 9 14 2
10 -6 -4 -15 -3 -18 3 -4 6 -1 9 7 8 7 -2 13 6 13 17 0 11 4 23 10 27 6 5 6
11 -2 19 -8 8 -9 18 -2 30 5 10 7 33 4 51 -3 18 -8 53 -13 78 -4 25 -7 59 -7
77 1 25 -4 33 -22 38 -13 3 -23 10 -23 15 0 5 -7 7 -15 4 -8 -4 -15 -2 -15 4
0 6 5 12 11 14 13 4 -8 76 -26 91 -6 6 -6 10 3 14 6 2 12 9 12 14 0 6 -3 8 -8
5 -4 -2 -16 16 -26 40 -10 24 -22 44 -28 44 -5 0 -16 7 -25 16 -12 11 -13 18
-4 27 21 21 12 45 -20 52 -18 4 -34 16 -38 28 -11 27 -5 38 14 30 8 -3 15 0
15 6 0 6 6 11 13 11 23 0 38 16 31 34 -5 12 -10 14 -19 6 -9 -8 -14 -6 -19 6
-4 10 -12 14 -22 10 -9 -4 -27 0 -39 8 -16 11 -21 22 -19 49 3 39 -18 72 -98
151 -47 46 -104 69 -112 44z m64 -870 c22 -41 26 -93 8 -104 -8 -5 -9 -2 -5 9
3 10 2 17 -3 17 -6 0 -10 7 -10 15 0 8 -7 15 -15 15 -12 0 -15 13 -15 58 0 61
3 60 40 -10z m-44 -256 c-13 -12 -15 6 -8 63 l7 60 3 -59 c2 -32 1 -61 -2 -64z"/>
<path d="M2365 1046 c-17 -13 -50 -29 -73 -35 -45 -13 -61 -34 -81 -108 -7
-26 -18 -43 -27 -43 -8 0 -19 -11 -26 -25 -6 -13 -15 -22 -19 -19 -5 3 -7 -1
-4 -8 3 -7 -10 -23 -30 -35 -24 -16 -37 -34 -45 -62 -6 -22 -15 -43 -20 -46
-6 -3 -10 -15 -10 -26 0 -11 -6 -30 -14 -42 -8 -12 -17 -43 -21 -69 -3 -27
-10 -48 -14 -48 -5 0 -7 -13 -6 -30 1 -16 -1 -27 -6 -24 -5 3 -9 2 -10 -3 0
-4 -3 -37 -5 -73 -7 -102 -9 -110 -17 -110 -4 0 -10 7 -13 15 -9 24 -24 7 -25
-28 0 -18 -3 -26 -6 -19 -6 15 -23 16 -23 2 0 -6 -5 -16 -10 -23 -6 -7 -17
-21 -25 -32 -12 -18 -14 -12 -12 52 l2 72 -18 -35 c-25 -49 -108 -159 -117
-157 -4 1 -7 -5 -6 -15 0 -9 -5 -16 -11 -15 -7 2 -12 0 -12 -5 3 -18 -2 -33
-9 -28 -5 3 -9 -1 -9 -9 0 -12 14 -15 58 -15 56 0 59 2 75 32 9 18 33 54 53
81 l36 48 6 -33 6 -33 16 37 c9 21 18 45 18 55 3 39 18 -66 18 -124 l1 -63
194 0 c177 0 195 2 199 18 4 16 5 16 6 0 1 -16 15 -18 156 -18 l155 0 0 26 c0
21 -4 25 -20 21 -11 -3 -18 -1 -15 3 3 5 1 19 -4 32 -5 13 -15 49 -22 82 -7
32 -18 64 -25 70 -6 7 -15 33 -18 58 -3 25 -14 68 -23 94 -13 39 -17 93 -18
262 -1 161 -5 216 -14 222 -9 5 -12 25 -10 56 2 37 -2 58 -19 84 -12 19 -22
41 -22 48 0 20 -32 14 -65 -12z m140 -737 c8 -57 18 -117 21 -133 4 -19 3 -26
-5 -22 -7 5 -11 -4 -11 -26 -1 -50 -35 -118 -60 -118 -13 0 -20 7 -21 20 -1
11 -2 23 -3 28 -19 74 -27 131 -22 156 7 35 78 207 84 202 2 -2 10 -50 17
-107z m32 -201 c-3 -7 -5 -2 -5 12 0 14 2 19 5 13 2 -7 2 -19 0 -25z"/>
<path d="M1972 870 c0 -14 2 -19 5 -12 2 6 2 18 0 25 -3 6 -5 1 -5 -13z"/>
<path d="M4850 596 c0 -2 8 -10 18 -17 15 -13 16 -12 3 4 -13 16 -21 21 -21
13z"/>
<path d="M4647 495 c-4 -8 -2 -17 3 -20 6 -4 10 3 10 14 0 25 -6 27 -13 6z"/>
</g>
</svg>
